<svg id="svg" version="1.1" xmlns="http://www.w3.org/2000/svg" xmlns:xlink="http://www.w3.org/1999/xlink" width="400" height="400" viewBox="0, 0, 400,400"><g id="svgg"><path id="path0" d="M52.341 156.593 C 52.205 156.728,50.858 157.001,49.347 157.199 C 44.360 157.855,39.591 159.117,38.620 160.039 C 38.411 160.238,37.996 160.400,37.698 160.400 C 35.652 160.400,29.348 166.348,27.867 169.677 C 24.166 177.991,25.530 186.988,31.400 192.986 C 35.554 197.230,39.467 199.459,51.800 204.606 C 52.460 204.882,53.853 205.488,54.896 205.953 C 55.938 206.419,56.946 206.800,57.134 206.800 C 57.323 206.800,58.000 207.050,58.639 207.356 C 59.724 207.876,60.910 208.397,64.100 209.753 C 69.363 211.990,71.837 213.891,73.285 216.811 C 75.820 221.926,74.017 227.458,69.000 229.954 C 62.817 233.031,46.599 231.664,41.900 227.671 C 41.343 227.198,41.200 226.433,41.200 223.930 L 41.200 220.783 33.100 220.892 L 25.000 221.000 24.890 227.074 L 24.779 233.149 25.890 234.187 C 27.126 235.343,35.467 239.600,36.496 239.600 C 36.857 239.600,37.264 239.780,37.400 240.000 C 37.536 240.220,38.076 240.400,38.600 240.400 C 39.124 240.400,39.652 240.560,39.773 240.756 C 39.894 240.951,40.579 241.212,41.296 241.334 C 42.013 241.456,43.500 241.750,44.600 241.987 C 52.520 243.694,65.986 243.903,72.000 242.413 C 80.491 240.309,84.335 238.323,87.675 234.315 C 91.013 230.308,92.000 227.255,92.000 220.931 C 92.000 210.441,87.066 204.093,74.800 198.802 C 73.150 198.090,70.850 197.078,69.688 196.554 C 68.527 196.029,67.399 195.600,67.183 195.600 C 66.966 195.600,66.477 195.441,66.095 195.247 C 64.865 194.621,63.459 194.072,60.800 193.180 C 59.370 192.700,58.029 192.148,57.820 191.953 C 57.611 191.759,57.201 191.600,56.909 191.600 C 56.375 191.600,51.776 189.446,49.242 188.008 C 47.360 186.941,45.641 185.224,45.028 183.800 C 43.787 180.913,43.601 180.291,43.618 179.081 C 43.745 169.848,55.695 165.513,69.178 169.808 C 74.278 171.433,74.346 171.501,74.484 175.135 L 74.600 178.200 82.500 178.308 L 90.400 178.417 90.400 172.088 L 90.400 165.759 87.300 163.908 C 85.595 162.890,83.300 161.669,82.200 161.196 C 81.100 160.722,79.887 160.169,79.505 159.967 C 79.123 159.765,78.459 159.600,78.029 159.600 C 77.599 159.600,77.151 159.444,77.033 159.254 C 76.916 159.064,76.140 158.778,75.310 158.619 C 74.479 158.460,72.990 158.161,72.000 157.955 C 66.770 156.864,53.022 155.911,52.341 156.593 M126.800 156.786 C 126.250 156.970,125.128 157.138,124.306 157.160 C 110.804 157.520,99.864 168.397,100.932 180.399 C 101.864 190.875,106.517 195.663,122.600 202.696 C 124.360 203.465,126.535 204.424,127.432 204.827 C 128.330 205.229,130.040 205.942,131.232 206.410 C 132.425 206.879,133.940 207.497,134.600 207.784 C 135.260 208.070,136.520 208.615,137.400 208.993 C 148.212 213.643,151.382 218.060,148.812 224.890 C 146.050 232.228,130.405 234.217,118.915 228.691 L 116.431 227.496 116.315 224.248 L 116.200 221.000 108.100 220.892 L 100.000 220.783 100.000 227.173 L 100.000 233.562 101.829 234.820 C 103.910 236.252,110.801 239.600,111.666 239.600 C 111.982 239.600,112.411 239.749,112.620 239.930 C 113.154 240.395,117.659 241.612,121.600 242.356 C 129.030 243.759,141.655 243.787,147.200 242.413 C 154.879 240.510,158.396 238.821,161.800 235.399 C 165.746 231.433,167.191 227.574,167.191 221.000 C 167.191 209.694,161.521 203.273,146.168 197.191 C 144.426 196.500,142.370 195.662,141.600 195.327 C 139.103 194.242,138.637 194.065,136.000 193.200 C 130.989 191.557,124.286 188.256,122.281 186.445 C 117.736 182.339,117.786 174.101,122.373 171.065 C 127.791 167.480,140.883 167.569,148.078 171.240 L 149.566 171.999 149.683 175.100 L 149.800 178.200 157.600 178.200 L 165.400 178.200 165.510 172.122 L 165.621 166.044 163.310 164.479 C 161.009 162.920,157.061 160.940,154.400 160.009 C 153.630 159.740,152.640 159.371,152.200 159.190 C 151.760 159.009,150.860 158.747,150.200 158.609 C 149.540 158.470,148.190 158.182,147.200 157.968 C 141.668 156.773,129.031 156.041,126.800 156.786 M329.000 156.786 C 328.560 156.983,327.591 157.156,326.846 157.172 C 326.102 157.187,324.752 157.394,323.846 157.632 C 322.941 157.869,321.480 158.250,320.600 158.477 C 313.015 160.440,305.242 165.953,301.274 172.186 C 294.834 182.301,292.136 200.353,295.204 212.800 C 295.394 213.570,295.773 215.100,296.047 216.200 C 299.558 230.314,312.464 240.863,328.600 242.807 C 344.863 244.767,358.127 242.229,369.440 234.992 L 371.600 233.610 371.600 227.805 L 371.600 222.000 364.017 222.000 L 356.434 222.000 356.317 225.041 L 356.200 228.081 354.536 229.014 C 352.170 230.341,349.386 231.090,344.051 231.836 C 326.698 234.261,314.549 226.891,312.344 212.600 C 311.562 207.530,311.472 205.127,312.050 204.760 C 312.353 204.569,326.595 204.409,343.700 204.406 L 374.800 204.400 374.800 198.777 C 374.800 178.291,367.384 165.070,352.600 159.198 C 350.346 158.303,348.714 157.899,343.600 156.967 C 341.278 156.544,329.858 156.402,329.000 156.786 M172.037 159.356 C 171.727 159.729,171.612 161.604,171.688 165.056 L 171.800 170.200 175.800 170.422 C 181.969 170.764,182.565 171.440,184.777 180.600 C 185.468 183.460,186.194 186.430,186.391 187.200 C 186.588 187.970,186.952 189.500,187.200 190.600 C 187.448 191.700,187.834 193.320,188.058 194.200 C 188.283 195.080,188.643 196.520,188.860 197.400 C 189.077 198.280,189.422 199.553,189.627 200.228 C 189.832 200.904,190.000 201.928,190.000 202.505 C 190.000 203.081,190.161 203.652,190.358 203.774 C 190.555 203.895,190.810 204.671,190.925 205.497 C 191.040 206.324,191.330 207.765,191.567 208.700 C 192.366 211.837,192.841 213.789,193.200 215.400 C 193.396 216.280,193.738 217.720,193.960 218.600 C 194.182 219.480,194.526 220.920,194.725 221.800 C 196.157 228.133,198.883 239.159,199.199 239.900 C 199.580 240.793,199.646 240.800,208.159 240.800 L 216.736 240.800 217.338 238.900 C 217.669 237.855,218.781 234.300,219.808 231.000 C 220.835 227.700,221.993 224.010,222.382 222.800 C 222.771 221.590,223.675 218.710,224.392 216.400 C 225.109 214.090,225.834 211.840,226.002 211.400 C 226.171 210.960,226.530 209.790,226.800 208.800 C 227.070 207.810,227.428 206.640,227.595 206.200 C 227.761 205.760,228.433 203.690,229.087 201.600 C 232.805 189.723,233.538 188.067,234.184 190.100 C 235.446 194.070,237.789 201.690,239.689 208.000 C 239.921 208.770,240.245 209.760,240.410 210.200 C 240.574 210.640,240.930 211.810,241.200 212.800 C 241.470 213.790,241.829 214.960,241.998 215.400 C 242.167 215.840,242.708 217.550,243.200 219.200 C 243.692 220.850,244.229 222.560,244.392 223.000 C 244.556 223.440,244.877 224.430,245.107 225.200 C 245.677 227.110,248.762 237.025,249.401 239.000 L 249.918 240.600 258.394 240.800 C 263.807 240.928,266.988 240.855,267.196 240.600 C 267.503 240.225,269.205 233.436,272.011 221.400 C 273.324 215.770,273.849 213.677,274.427 211.772 C 274.632 211.096,274.800 210.072,274.800 209.495 C 274.800 208.919,274.980 208.336,275.200 208.200 C 275.420 208.064,275.600 207.344,275.600 206.600 C 275.600 205.856,275.780 205.136,276.000 205.000 C 276.220 204.864,276.400 204.144,276.400 203.400 C 276.400 202.656,276.580 201.936,276.800 201.800 C 277.020 201.664,277.200 201.081,277.200 200.505 C 277.200 199.928,277.368 198.904,277.573 198.228 C 278.024 196.743,278.594 194.489,279.200 191.800 C 279.638 189.856,279.993 188.396,280.782 185.300 C 280.992 184.475,281.717 181.561,282.392 178.825 C 284.209 171.459,285.317 170.407,291.267 170.402 C 295.397 170.399,295.200 170.677,295.200 164.837 C 295.200 158.218,296.341 158.800,283.369 158.800 C 270.999 158.800,271.953 158.506,271.037 162.603 C 270.694 164.142,270.236 166.030,270.021 166.800 C 269.806 167.570,269.364 169.370,269.040 170.800 C 268.716 172.230,267.527 177.270,266.399 182.000 C 265.271 186.730,263.812 192.850,263.158 195.600 C 261.776 201.402,261.289 203.330,260.773 205.028 C 260.568 205.704,260.400 206.728,260.400 207.305 C 260.400 207.881,260.239 208.452,260.042 208.574 C 259.845 208.695,259.590 209.471,259.475 210.297 C 259.360 211.124,259.059 212.610,258.807 213.600 C 258.554 214.590,258.225 216.030,258.074 216.800 C 257.287 220.820,256.411 220.365,254.781 215.090 C 254.086 212.841,253.098 209.650,252.587 208.000 C 252.076 206.350,251.081 203.110,250.376 200.800 C 249.672 198.490,248.784 195.610,248.403 194.400 C 248.023 193.190,247.305 190.850,246.808 189.200 C 246.311 187.550,245.767 185.840,245.598 185.400 C 245.429 184.960,245.070 183.790,244.800 182.800 C 244.530 181.810,244.170 180.640,244.000 180.200 C 243.830 179.760,243.470 178.590,243.200 177.600 C 242.930 176.610,242.571 175.440,242.402 175.000 C 242.233 174.560,241.692 172.850,241.200 171.200 C 239.628 165.931,240.406 166.400,233.232 166.403 L 227.000 166.406 226.500 167.483 C 226.225 168.075,226.000 168.796,226.000 169.085 C 226.000 169.374,225.838 169.923,225.639 170.305 C 225.440 170.687,225.060 171.810,224.793 172.800 C 224.527 173.790,224.170 174.960,224.000 175.400 C 223.830 175.840,223.473 177.010,223.207 178.000 C 222.940 178.990,222.560 180.113,222.361 180.495 C 222.162 180.877,222.000 181.464,222.000 181.800 C 222.000 182.136,221.838 182.723,221.639 183.105 C 221.440 183.487,221.056 184.610,220.785 185.600 C 220.514 186.590,219.972 188.390,219.579 189.600 C 219.187 190.810,218.380 193.420,217.787 195.400 C 213.398 210.048,210.454 219.240,209.992 219.742 C 209.629 220.135,208.566 217.965,208.258 216.200 C 207.925 214.290,207.590 212.707,207.200 211.200 C 207.001 210.430,206.478 208.270,206.039 206.400 C 205.599 204.530,204.794 201.110,204.249 198.800 C 203.704 196.490,202.875 192.890,202.408 190.800 C 201.940 188.710,201.207 185.515,200.779 183.700 C 199.214 177.072,198.348 173.360,197.953 171.600 C 197.731 170.610,197.392 169.170,197.200 168.400 C 197.008 167.630,196.648 166.100,196.400 165.000 C 195.684 161.821,195.086 159.839,194.679 159.300 C 194.099 158.531,172.678 158.584,172.037 159.356 M341.793 169.006 C 349.133 170.560,354.854 176.158,356.505 183.400 C 357.083 185.933,357.733 192.676,357.467 193.370 C 357.219 194.015,313.871 194.386,312.233 193.757 C 311.446 193.455,311.433 192.026,312.181 187.800 C 312.851 184.019,313.031 183.414,314.481 180.100 C 318.419 171.099,329.818 166.469,341.793 169.006 " stroke="none" fill="#fbfbfb" fill-rule="evenodd"></path><path id="path1" d="M30.300 0.290 C 29.475 0.377,28.800 0.617,28.800 0.824 C 28.800 1.031,28.271 1.200,27.624 1.200 C 26.977 1.200,26.336 1.380,26.200 1.600 C 26.064 1.820,25.513 2.000,24.976 2.000 C 24.439 2.000,24.000 2.180,24.000 2.400 C 24.000 2.620,23.640 2.800,23.200 2.800 C 22.760 2.800,22.400 2.980,22.400 3.200 C 22.400 3.420,22.040 3.600,21.600 3.600 C 21.160 3.600,20.800 3.780,20.800 4.000 C 20.800 4.220,20.440 4.400,20.000 4.400 C 19.560 4.400,19.200 4.580,19.200 4.800 C 19.200 5.020,18.912 5.200,18.560 5.200 C 18.209 5.200,17.417 5.740,16.800 6.400 C 16.183 7.060,15.476 7.600,15.229 7.600 C 14.244 7.600,7.600 14.244,7.600 15.229 C 7.600 15.476,7.060 16.183,6.400 16.800 C 5.740 17.417,5.200 18.209,5.200 18.560 C 5.200 18.912,5.020 19.200,4.800 19.200 C 4.580 19.200,4.400 19.560,4.400 20.000 C 4.400 20.440,4.220 20.800,4.000 20.800 C 3.780 20.800,3.600 21.160,3.600 21.600 C 3.600 22.040,3.420 22.400,3.200 22.400 C 2.980 22.400,2.800 22.760,2.800 23.200 C 2.800 23.640,2.620 24.000,2.400 24.000 C 2.180 24.000,2.000 24.439,2.000 24.976 C 2.000 25.513,1.820 26.064,1.600 26.200 C 1.380 26.336,1.200 26.962,1.200 27.590 C 1.200 28.219,0.975 28.808,0.700 28.900 C -0.036 29.145,-0.036 370.524,0.700 371.260 C 0.975 371.535,1.200 372.163,1.200 372.656 C 1.200 373.149,1.380 373.664,1.600 373.800 C 1.820 373.936,2.000 374.487,2.000 375.024 C 2.000 375.561,2.180 376.000,2.400 376.000 C 2.620 376.000,2.800 376.360,2.800 376.800 C 2.800 377.240,2.980 377.600,3.200 377.600 C 3.420 377.600,3.600 377.960,3.600 378.400 C 3.600 378.840,3.780 379.200,4.000 379.200 C 4.220 379.200,4.400 379.560,4.400 380.000 C 4.400 380.440,4.580 380.800,4.800 380.800 C 5.020 380.800,5.200 381.088,5.200 381.440 C 5.200 381.791,5.740 382.583,6.400 383.200 C 7.060 383.817,7.600 384.524,7.600 384.771 C 7.600 385.756,14.244 392.400,15.229 392.400 C 15.476 392.400,16.183 392.940,16.800 393.600 C 17.417 394.260,18.209 394.800,18.560 394.800 C 18.912 394.800,19.200 394.980,19.200 395.200 C 19.200 395.420,19.560 395.600,20.000 395.600 C 20.440 395.600,20.800 395.780,20.800 396.000 C 20.800 396.220,21.160 396.400,21.600 396.400 C 22.040 396.400,22.400 396.580,22.400 396.800 C 22.400 397.020,22.760 397.200,23.200 397.200 C 23.640 397.200,24.000 397.380,24.000 397.600 C 24.000 397.820,24.439 398.000,24.976 398.000 C 25.513 398.000,26.064 398.180,26.200 398.400 C 26.336 398.620,26.962 398.800,27.590 398.800 C 28.219 398.800,28.808 399.025,28.900 399.300 C 29.145 400.036,370.524 400.036,371.260 399.300 C 371.535 399.025,372.163 398.800,372.656 398.800 C 373.149 398.800,373.664 398.620,373.800 398.400 C 373.936 398.180,374.487 398.000,375.024 398.000 C 375.561 398.000,376.000 397.820,376.000 397.600 C 376.000 397.380,376.360 397.200,376.800 397.200 C 377.240 397.200,377.600 397.020,377.600 396.800 C 377.600 396.580,377.960 396.400,378.400 396.400 C 378.840 396.400,379.201 396.265,379.203 396.100 C 379.206 395.783,381.109 394.800,381.719 394.800 C 381.917 394.800,382.583 394.260,383.200 393.600 C 383.817 392.940,384.524 392.400,384.771 392.400 C 385.192 392.400,387.036 390.887,388.962 388.962 C 390.887 387.036,392.400 385.192,392.400 384.771 C 392.400 384.524,392.940 383.817,393.600 383.200 C 394.260 382.583,394.800 381.917,394.800 381.719 C 394.800 381.109,395.783 379.206,396.100 379.203 C 396.265 379.201,396.400 378.840,396.400 378.400 C 396.400 377.960,396.580 377.600,396.800 377.600 C 397.020 377.600,397.200 377.240,397.200 376.800 C 397.200 376.360,397.380 376.000,397.600 376.000 C 397.820 376.000,398.000 375.561,398.000 375.024 C 398.000 374.487,398.180 373.936,398.400 373.800 C 398.620 373.664,398.800 373.149,398.800 372.656 C 398.800 372.163,399.025 371.535,399.300 371.260 C 399.698 370.862,399.800 336.057,399.800 199.913 C 399.800 63.592,399.699 29.033,399.300 28.900 C 399.025 28.808,398.800 28.219,398.800 27.590 C 398.800 26.962,398.620 26.336,398.400 26.200 C 398.180 26.064,398.000 25.513,398.000 24.976 C 398.000 24.439,397.820 24.000,397.600 24.000 C 397.380 24.000,397.200 23.640,397.200 23.200 C 397.200 22.760,397.020 22.400,396.800 22.400 C 396.580 22.400,396.400 22.040,396.400 21.600 C 396.400 21.160,396.220 20.800,396.000 20.800 C 395.780 20.800,395.600 20.440,395.600 20.000 C 395.600 19.560,395.420 19.200,395.200 19.200 C 394.980 19.200,394.800 18.912,394.800 18.560 C 394.800 18.209,394.260 17.417,393.600 16.800 C 392.940 16.183,392.400 15.476,392.400 15.229 C 392.400 14.244,385.756 7.600,384.771 7.600 C 384.524 7.600,383.817 7.060,383.200 6.400 C 382.583 5.740,381.791 5.200,381.440 5.200 C 381.088 5.200,380.800 5.020,380.800 4.800 C 380.800 4.580,380.440 4.400,380.000 4.400 C 379.560 4.400,379.200 4.220,379.200 4.000 C 379.200 3.780,378.840 3.600,378.400 3.600 C 377.960 3.600,377.600 3.420,377.600 3.200 C 377.600 2.980,377.240 2.800,376.800 2.800 C 376.360 2.800,376.000 2.620,376.000 2.400 C 376.000 2.180,375.561 2.000,375.024 2.000 C 374.487 2.000,373.936 1.820,373.800 1.600 C 373.664 1.380,373.149 1.200,372.656 1.200 C 372.163 1.200,371.535 0.975,371.260 0.700 C 370.787 0.227,34.721 -0.177,30.300 0.290 M67.323 156.414 C 71.745 157.050,74.153 157.599,78.200 158.896 C 82.547 160.289,89.413 163.934,90.700 165.532 C 91.400 166.402,91.399 177.574,90.699 178.532 C 90.250 179.146,89.367 179.206,82.199 179.109 L 74.200 179.000 74.085 175.763 L 73.970 172.527 72.285 171.710 C 62.684 167.057,48.114 168.424,45.356 174.236 C 44.239 176.590,44.447 181.527,45.757 183.762 C 47.201 186.226,52.690 189.628,58.400 191.598 C 60.103 192.185,61.567 192.775,62.495 193.247 C 62.877 193.441,63.464 193.600,63.800 193.600 C 64.136 193.600,64.723 193.759,65.105 193.953 C 65.792 194.303,67.151 194.873,68.900 195.546 C 81.875 200.542,91.600 208.079,91.600 213.140 C 91.600 213.525,91.751 214.011,91.935 214.220 C 92.387 214.731,93.200 219.477,93.200 221.600 C 93.200 223.205,92.979 224.314,91.887 228.200 C 89.961 235.052,83.465 240.416,74.600 242.474 C 69.699 243.613,67.936 243.765,59.600 243.773 C 51.149 243.781,48.839 243.585,43.400 242.400 C 42.300 242.160,40.903 241.861,40.295 241.736 C 39.687 241.610,39.092 241.349,38.971 241.154 C 38.851 240.959,38.324 240.800,37.800 240.800 C 37.276 240.800,36.736 240.620,36.600 240.400 C 36.464 240.180,36.090 240.000,35.768 240.000 C 34.336 240.000,27.180 236.206,24.900 234.237 C 23.783 233.273,23.481 221.329,24.551 220.441 C 24.935 220.122,27.578 220.016,33.251 220.092 L 41.400 220.200 41.516 223.600 L 41.632 227.000 44.116 228.163 C 48.441 230.189,52.582 230.987,58.600 230.956 C 68.327 230.905,72.369 228.726,73.476 222.937 C 74.530 217.426,71.621 213.724,63.500 210.243 C 62.675 209.889,61.370 209.330,60.600 209.000 C 55.937 207.002,54.722 206.493,53.400 205.986 C 52.960 205.818,51.790 205.328,50.800 204.899 C 49.810 204.470,48.190 203.777,47.200 203.359 C 34.654 198.067,28.499 192.951,26.076 185.800 C 25.220 183.276,24.735 178.501,25.172 176.923 C 25.405 176.086,25.597 174.826,25.598 174.124 C 25.599 173.422,25.780 172.736,26.000 172.600 C 26.220 172.464,26.400 172.039,26.400 171.655 C 26.400 169.118,30.929 163.504,34.785 161.262 C 38.213 159.269,40.019 158.503,43.600 157.521 C 48.823 156.090,61.087 155.517,67.323 156.414 M142.600 156.426 C 144.360 156.664,146.475 157.025,147.300 157.229 C 151.013 158.147,152.247 158.502,152.895 158.839 C 153.277 159.038,153.864 159.200,154.200 159.200 C 154.536 159.200,155.123 159.373,155.505 159.584 C 155.887 159.795,157.460 160.547,159.000 161.255 C 162.057 162.662,165.114 164.556,165.900 165.532 C 166.647 166.459,166.602 178.135,165.849 178.760 C 165.465 179.078,162.874 179.184,157.349 179.109 L 149.400 179.000 149.283 175.915 C 149.146 172.275,148.803 171.909,144.200 170.491 C 133.334 167.142,122.834 169.010,120.352 174.733 C 117.317 181.729,121.267 186.787,133.600 191.695 C 134.150 191.914,134.913 192.252,135.295 192.447 C 135.677 192.641,136.341 192.800,136.771 192.800 C 137.201 192.800,137.664 192.980,137.800 193.200 C 137.936 193.420,138.399 193.600,138.829 193.600 C 139.259 193.600,139.923 193.759,140.305 193.953 C 140.687 194.148,141.495 194.508,142.100 194.753 C 142.705 194.999,143.605 195.366,144.100 195.569 C 144.595 195.772,145.810 196.262,146.800 196.659 C 161.739 202.643,168.000 209.853,168.000 221.074 C 168.000 230.738,163.369 237.337,153.900 241.164 C 151.711 242.049,150.676 242.329,146.000 243.305 C 143.061 243.919,126.569 243.921,123.200 243.309 C 113.665 241.575,104.835 238.231,100.700 234.790 L 99.200 233.542 99.200 227.220 C 99.200 219.282,98.324 219.957,108.451 220.092 L 116.600 220.200 116.718 223.381 C 116.847 226.840,117.080 227.339,118.955 228.160 C 127.039 231.704,138.452 232.140,144.244 229.126 C 150.883 225.670,149.993 215.704,142.728 212.156 C 140.578 211.106,137.261 209.599,136.200 209.190 C 134.947 208.707,132.314 207.568,131.039 206.956 C 130.400 206.650,129.713 206.400,129.513 206.400 C 129.313 206.400,128.036 205.882,126.675 205.249 C 125.314 204.616,123.570 203.860,122.800 203.568 C 105.108 196.861,97.512 186.311,100.948 173.219 C 102.164 168.586,107.247 161.600,109.403 161.600 C 109.731 161.600,110.000 161.450,110.000 161.268 C 110.000 160.919,114.283 158.827,116.000 158.337 C 116.550 158.180,117.720 157.846,118.600 157.595 C 123.894 156.082,135.766 155.504,142.600 156.426 M344.893 156.456 C 348.707 157.054,352.446 158.261,356.400 160.170 C 357.670 160.783,359.340 161.739,359.600 162.002 C 359.710 162.114,360.514 162.737,361.387 163.389 C 365.199 166.234,368.844 170.867,371.152 175.800 C 371.667 176.900,372.248 178.113,372.444 178.495 C 372.640 178.877,372.800 179.541,372.800 179.971 C 372.800 180.401,372.960 180.852,373.156 180.973 C 373.351 181.094,373.613 181.779,373.736 182.496 C 373.860 183.213,374.185 184.880,374.459 186.200 C 374.755 187.633,374.965 191.905,374.978 196.800 L 375.000 205.000 343.800 205.200 L 312.600 205.400 312.707 208.709 C 312.905 214.796,314.988 220.594,318.284 224.232 C 320.945 227.169,325.422 229.828,329.000 230.598 C 333.863 231.644,343.477 231.721,347.400 230.746 C 350.924 229.870,354.415 228.567,355.600 227.685 C 355.710 227.603,355.890 226.156,356.000 224.468 L 356.200 221.400 363.971 221.291 C 369.920 221.208,371.818 221.302,372.065 221.691 C 372.468 222.327,372.495 233.245,372.094 233.826 C 371.334 234.929,363.807 239.091,360.200 240.402 C 359.760 240.562,358.950 240.877,358.400 241.101 C 357.303 241.548,354.875 242.225,353.000 242.606 C 352.340 242.740,350.900 243.036,349.800 243.264 C 344.440 244.376,329.367 244.094,324.300 242.787 C 318.382 241.260,318.773 241.402,314.400 239.205 C 306.310 235.140,301.214 230.009,297.592 222.278 C 296.716 220.410,296.000 218.540,296.000 218.121 C 296.000 217.702,295.849 217.189,295.664 216.980 C 295.480 216.771,295.131 215.610,294.888 214.400 C 294.646 213.190,294.243 211.210,293.992 210.000 C 293.459 207.425,293.696 192.733,294.331 189.000 C 294.873 185.814,295.195 184.366,295.575 183.400 C 295.748 182.960,296.109 181.880,296.378 181.000 C 297.989 175.725,301.342 170.176,305.163 166.462 C 308.659 163.065,315.107 159.272,319.200 158.206 C 319.750 158.063,320.830 157.764,321.600 157.541 C 326.772 156.044,338.720 155.488,344.893 156.456 M195.544 159.100 C 195.890 159.751,196.291 161.293,197.781 167.700 C 201.331 182.964,203.043 190.355,203.688 193.200 C 204.112 195.070,204.635 197.320,204.851 198.200 C 205.067 199.080,205.414 200.565,205.622 201.500 C 205.830 202.435,206.170 203.965,206.378 204.900 C 206.733 206.495,207.080 207.944,208.031 211.800 C 208.248 212.680,208.534 214.169,208.666 215.109 C 208.798 216.049,209.062 216.915,209.253 217.033 C 209.444 217.151,209.611 217.732,209.625 218.324 C 209.643 219.126,209.805 218.890,210.260 217.400 C 210.596 216.300,211.035 215.087,211.235 214.705 C 211.436 214.323,211.600 213.659,211.600 213.229 C 211.600 212.799,211.780 212.336,212.000 212.200 C 212.220 212.064,212.400 211.511,212.400 210.971 C 212.400 210.431,212.558 209.677,212.751 209.295 C 212.944 208.913,213.287 207.970,213.513 207.200 C 213.739 206.430,214.589 203.640,215.401 201.000 C 217.173 195.241,218.899 189.610,220.059 185.800 C 220.527 184.260,221.228 182.010,221.616 180.800 C 222.004 179.590,222.896 176.710,223.598 174.400 C 224.300 172.090,225.038 169.787,225.237 169.281 C 225.437 168.776,225.600 168.070,225.600 167.713 C 225.600 165.868,226.566 165.600,233.200 165.600 C 240.879 165.600,240.118 165.053,242.109 172.000 C 242.330 172.770,242.644 173.760,242.808 174.200 C 242.971 174.640,243.508 176.350,244.000 178.000 C 244.492 179.650,245.032 181.360,245.200 181.800 C 245.368 182.240,245.911 183.950,246.408 185.600 C 246.905 187.250,247.623 189.590,248.003 190.800 C 248.384 192.010,249.245 194.800,249.917 197.000 C 250.589 199.200,251.783 203.074,252.570 205.609 C 253.356 208.145,254.000 210.442,254.000 210.715 C 254.000 210.988,254.163 211.523,254.362 211.905 C 254.561 212.287,255.159 214.004,255.692 215.719 L 256.659 218.838 257.163 217.119 C 257.439 216.174,257.831 214.725,258.033 213.900 C 258.839 210.604,259.271 208.944,259.627 207.772 C 259.832 207.096,260.000 206.209,260.000 205.800 C 260.000 205.391,260.168 204.504,260.373 203.828 C 260.824 202.343,261.394 200.089,262.000 197.400 C 262.248 196.300,262.608 194.770,262.800 194.000 C 262.992 193.230,263.334 191.790,263.559 190.800 C 263.785 189.810,264.597 186.390,265.363 183.200 C 267.381 174.807,269.014 167.943,270.027 163.600 C 271.389 157.763,269.781 158.372,283.517 158.494 L 295.400 158.600 295.511 164.345 C 295.648 171.422,295.790 171.200,291.125 171.200 C 284.486 171.200,284.989 170.280,279.963 191.600 C 279.523 193.470,278.991 195.675,278.781 196.500 C 277.965 199.714,277.634 201.074,277.200 203.000 C 276.952 204.100,276.581 205.675,276.375 206.500 C 276.169 207.325,275.831 208.675,275.625 209.500 C 275.419 210.325,275.048 211.900,274.800 213.000 C 274.194 215.689,273.624 217.943,273.173 219.428 C 272.968 220.104,272.800 220.991,272.800 221.400 C 272.800 221.809,272.632 222.696,272.427 223.372 C 271.858 225.248,271.342 227.309,269.969 233.200 C 269.276 236.170,268.498 239.230,268.238 240.000 L 267.767 241.400 259.384 241.513 C 248.800 241.656,249.608 241.907,248.447 238.114 C 246.373 231.334,245.883 229.769,245.595 229.000 C 245.430 228.560,244.895 226.850,244.407 225.200 C 243.918 223.550,243.356 221.887,243.159 221.505 C 242.962 221.123,242.800 220.459,242.800 220.029 C 242.800 219.599,242.620 219.136,242.400 219.000 C 242.180 218.864,242.000 218.234,242.000 217.600 C 242.000 216.966,241.820 216.336,241.600 216.200 C 241.380 216.064,241.200 215.601,241.200 215.171 C 241.200 214.741,241.038 214.077,240.839 213.695 C 240.640 213.313,240.260 212.190,239.993 211.200 C 239.727 210.210,239.374 209.040,239.210 208.600 C 239.045 208.160,238.722 207.170,238.491 206.400 C 238.260 205.630,237.535 203.290,236.880 201.200 C 236.225 199.110,235.287 196.050,234.796 194.400 C 234.305 192.750,233.763 191.247,233.591 191.060 C 233.312 190.755,231.476 196.027,229.154 203.800 C 228.694 205.340,228.156 206.913,227.959 207.295 C 227.762 207.677,227.600 208.264,227.600 208.600 C 227.600 208.936,227.438 209.523,227.239 209.905 C 227.040 210.287,226.663 211.410,226.400 212.400 C 226.137 213.390,225.760 214.513,225.561 214.895 C 225.362 215.277,225.200 215.864,225.200 216.200 C 225.200 216.536,225.038 217.123,224.841 217.505 C 224.644 217.887,224.085 219.550,223.600 221.200 C 223.115 222.850,222.556 224.513,222.359 224.895 C 222.162 225.277,222.000 225.941,222.000 226.371 C 222.000 226.801,221.820 227.264,221.600 227.400 C 221.380 227.536,221.200 227.933,221.200 228.281 C 221.200 229.187,217.584 240.500,217.103 241.100 C 216.804 241.472,214.481 241.600,208.000 241.600 C 198.296 241.600,198.805 241.753,198.037 238.600 C 197.769 237.500,197.392 235.970,197.200 235.200 C 197.008 234.430,196.648 232.900,196.400 231.800 C 195.578 228.149,194.550 224.073,193.973 222.172 C 193.768 221.496,193.600 220.609,193.600 220.200 C 193.600 219.791,193.432 218.904,193.227 218.228 C 192.776 216.743,192.206 214.489,191.600 211.800 C 191.146 209.785,190.725 208.062,190.013 205.300 C 189.800 204.475,189.180 201.910,188.634 199.600 C 188.088 197.290,187.012 192.790,186.243 189.600 C 185.473 186.410,184.369 181.820,183.789 179.400 C 182.013 171.989,181.220 171.200,175.549 171.200 C 170.749 171.200,170.800 171.270,170.800 164.651 C 170.800 161.069,170.955 159.205,171.280 158.880 C 172.154 158.006,195.073 158.214,195.544 159.100 M331.000 169.223 C 324.869 170.535,322.608 171.491,319.942 173.900 C 318.329 175.357,315.783 178.871,314.943 180.800 C 313.438 184.254,313.323 184.703,312.786 189.200 C 312.200 194.116,309.616 193.600,334.827 193.600 L 356.800 193.600 356.800 190.900 C 356.800 178.890,351.107 171.501,340.200 169.352 C 337.118 168.745,333.470 168.694,331.000 169.223 " stroke="none" fill="#dc8c8c" fill-rule="evenodd"></path><path id="path2" d="M52.112 156.295 C 53.164 156.377,54.784 156.376,55.712 156.292 C 56.640 156.208,55.780 156.141,53.800 156.142 C 51.820 156.143,51.060 156.212,52.112 156.295 M60.700 156.293 C 61.635 156.377,63.165 156.377,64.100 156.293 C 65.035 156.209,64.270 156.140,62.400 156.140 C 60.530 156.140,59.765 156.209,60.700 156.293 M127.312 156.295 C 128.364 156.377,129.984 156.376,130.912 156.292 C 131.840 156.208,130.980 156.141,129.000 156.142 C 127.020 156.143,126.260 156.212,127.312 156.295 M135.712 156.295 C 136.764 156.377,138.384 156.376,139.312 156.292 C 140.240 156.208,139.380 156.141,137.400 156.142 C 135.420 156.143,134.660 156.212,135.712 156.295 M329.500 156.293 C 330.435 156.377,331.965 156.377,332.900 156.293 C 333.835 156.209,333.070 156.140,331.200 156.140 C 329.330 156.140,328.565 156.209,329.500 156.293 M338.300 156.293 C 339.235 156.377,340.765 156.377,341.700 156.293 C 342.635 156.209,341.870 156.140,340.000 156.140 C 338.130 156.140,337.365 156.209,338.300 156.293 M44.800 157.206 C 44.378 157.482,44.615 157.523,45.600 157.342 C 47.325 157.025,47.651 156.798,46.367 156.806 C 45.835 156.809,45.130 156.989,44.800 157.206 M69.233 156.944 C 69.325 157.024,70.210 157.196,71.200 157.327 C 72.402 157.486,72.734 157.447,72.200 157.210 C 71.436 156.872,68.886 156.643,69.233 156.944 M120.000 157.218 C 119.562 157.515,119.724 157.552,120.600 157.356 C 122.071 157.027,122.390 156.798,121.367 156.806 C 120.945 156.809,120.330 156.995,120.000 157.218 M144.433 156.943 C 144.525 157.022,145.320 157.197,146.200 157.332 C 147.290 157.499,147.609 157.455,147.200 157.195 C 146.653 156.846,144.045 156.609,144.433 156.943 M322.800 157.218 C 322.362 157.515,322.524 157.552,323.400 157.356 C 324.871 157.027,325.190 156.798,324.167 156.806 C 323.745 156.809,323.130 156.995,322.800 157.218 M346.033 156.947 C 346.125 157.028,346.920 157.214,347.800 157.362 C 348.946 157.554,349.230 157.514,348.800 157.221 C 348.260 156.853,345.632 156.593,346.033 156.947 M73.233 157.744 C 73.325 157.823,73.940 158.008,74.600 158.156 C 75.476 158.352,75.638 158.315,75.200 158.018 C 74.660 157.653,72.832 157.398,73.233 157.744 M148.433 157.744 C 148.525 157.823,149.140 158.008,149.800 158.156 C 150.676 158.352,150.838 158.315,150.400 158.018 C 149.860 157.653,148.032 157.398,148.433 157.744 M171.280 158.880 C 170.955 159.205,170.800 161.069,170.800 164.651 C 170.800 171.259,170.781 171.232,175.329 171.119 L 178.600 171.037 175.336 170.903 C 171.080 170.728,171.152 170.845,171.288 164.345 L 171.400 159.000 183.286 158.894 L 195.172 158.788 195.758 160.694 C 196.081 161.742,196.357 162.279,196.372 161.887 C 196.387 161.495,196.139 160.550,195.820 159.787 L 195.241 158.400 183.500 158.400 C 174.902 158.400,171.632 158.528,171.280 158.880 M271.217 159.168 C 270.988 159.597,270.814 160.184,270.832 160.474 C 270.849 160.763,271.044 160.505,271.265 159.900 L 271.667 158.800 283.444 158.800 L 295.221 158.800 295.111 164.700 L 295.000 170.600 291.400 170.824 L 287.800 171.049 291.251 171.124 C 295.774 171.223,295.648 171.424,295.511 164.345 L 295.400 158.600 283.517 158.494 C 272.090 158.392,271.618 158.418,271.217 159.168 M110.800 160.600 C 110.250 160.914,109.980 161.172,110.200 161.172 C 110.420 161.172,111.050 160.914,111.600 160.600 C 112.150 160.286,112.420 160.028,112.200 160.028 C 111.980 160.028,111.350 160.286,110.800 160.600 M313.100 160.629 C 311.549 161.470,311.725 161.761,313.300 160.959 C 314.808 160.193,315.075 159.994,314.567 160.016 C 314.365 160.025,313.705 160.301,313.100 160.629 M108.229 162.209 C 107.805 162.529,107.535 162.868,107.629 162.961 C 107.723 163.055,108.225 162.787,108.744 162.366 C 109.838 161.479,109.379 161.339,108.229 162.209 M161.758 162.924 C 162.175 163.186,163.255 163.949,164.158 164.620 L 165.800 165.841 165.800 172.220 L 165.800 178.600 157.538 178.600 C 152.994 178.600,149.359 178.735,149.462 178.900 C 149.790 179.430,165.381 179.259,165.920 178.720 C 166.605 178.035,166.588 166.386,165.900 165.532 C 165.290 164.775,161.783 162.391,161.328 162.424 C 161.148 162.436,161.341 162.661,161.758 162.924 M196.662 164.200 C 196.796 165.080,196.972 165.875,197.053 165.967 C 197.356 166.310,197.129 164.168,196.781 163.400 C 196.529 162.842,196.493 163.085,196.662 164.200 M104.672 165.700 C 103.224 167.483,101.593 170.302,101.610 170.994 C 101.616 171.217,102.082 170.500,102.646 169.400 C 103.210 168.300,104.297 166.635,105.062 165.700 C 105.828 164.765,106.364 164.000,106.254 164.000 C 106.144 164.000,105.432 164.765,104.672 165.700 M305.347 166.320 C 304.039 167.596,302.551 169.261,302.042 170.020 C 301.369 171.023,301.536 170.908,302.652 169.600 C 303.497 168.610,305.091 166.948,306.194 165.907 C 307.297 164.866,308.093 164.011,307.963 164.007 C 307.832 164.003,306.655 165.044,305.347 166.320 M226.262 166.331 C 225.898 166.734,225.607 167.319,225.616 167.631 C 225.625 167.944,225.901 167.705,226.229 167.100 L 226.826 166.000 233.190 166.000 C 239.314 166.000,239.578 166.034,240.177 166.889 C 240.520 167.378,240.800 167.586,240.800 167.351 C 240.800 165.470,227.863 164.562,226.262 166.331 M28.598 166.802 C 28.198 167.244,27.966 167.699,28.082 167.815 C 28.197 167.930,28.590 167.569,28.955 167.012 C 29.752 165.796,29.593 165.702,28.598 166.802 M90.961 172.000 C 90.961 175.410,91.022 176.805,91.097 175.100 C 91.172 173.395,91.172 170.605,91.097 168.900 C 91.022 167.195,90.961 168.590,90.961 172.000 M197.268 166.800 C 197.288 167.839,197.918 169.546,197.932 168.600 C 197.938 168.160,197.789 167.440,197.600 167.000 C 197.389 166.510,197.261 166.432,197.268 166.800 M365.600 167.342 C 365.600 167.565,368.167 171.094,368.698 171.600 C 368.814 171.710,368.721 171.440,368.492 171.000 C 367.972 170.001,365.600 167.000,365.600 167.342 M53.000 169.200 L 52.200 169.544 53.000 169.532 C 53.440 169.526,54.250 169.376,54.800 169.200 L 55.800 168.880 54.800 168.868 C 54.250 168.862,53.440 169.011,53.000 169.200 M62.033 168.949 C 62.125 169.031,63.100 169.201,64.200 169.328 C 65.549 169.484,65.874 169.449,65.200 169.220 C 64.201 168.880,61.718 168.668,62.033 168.949 M128.200 169.219 C 127.642 169.471,127.885 169.507,129.000 169.338 C 129.880 169.204,130.675 169.028,130.767 168.947 C 131.110 168.644,128.968 168.871,128.200 169.219 M137.233 168.949 C 137.325 169.031,138.300 169.201,139.400 169.328 C 140.749 169.484,141.074 169.449,140.400 169.220 C 139.401 168.880,136.918 168.668,137.233 168.949 M329.400 169.200 L 328.600 169.544 329.400 169.525 C 329.840 169.514,330.740 169.368,331.400 169.200 L 332.600 168.895 331.400 168.875 C 330.740 168.865,329.840 169.011,329.400 169.200 M338.433 168.947 C 338.525 169.028,339.320 169.204,340.200 169.338 C 341.315 169.507,341.558 169.471,341.000 169.219 C 340.232 168.871,338.090 168.644,338.433 168.947 M268.229 171.029 C 268.081 171.615,268.038 172.172,268.132 172.266 C 268.227 172.360,268.424 171.958,268.571 171.371 C 268.719 170.785,268.762 170.228,268.668 170.134 C 268.573 170.040,268.376 170.442,268.229 171.029 M47.800 171.137 C 47.140 171.540,46.333 172.215,46.007 172.635 C 45.441 173.365,45.450 173.370,46.207 172.744 C 46.643 172.383,47.630 171.708,48.400 171.245 C 49.170 170.782,49.620 170.403,49.400 170.403 C 49.180 170.403,48.460 170.733,47.800 171.137 M121.404 172.396 C 120.774 173.054,120.335 173.656,120.429 173.734 C 120.523 173.812,121.113 173.274,121.739 172.538 C 123.154 170.877,122.945 170.788,121.404 172.396 M181.855 173.400 C 182.780 174.979,182.800 175.003,182.800 174.511 C 182.800 174.279,182.429 173.664,181.976 173.144 L 181.153 172.200 181.855 173.400 M318.940 174.500 C 316.602 176.944,313.514 181.795,314.805 180.997 C 315.022 180.863,315.200 180.571,315.200 180.348 C 315.200 179.699,317.574 176.346,319.340 174.500 C 320.235 173.565,320.877 172.800,320.767 172.800 C 320.657 172.800,319.835 173.565,318.940 174.500 M350.674 174.004 C 351.375 174.772,352.590 176.469,353.374 177.776 C 354.158 179.084,354.800 179.966,354.800 179.738 C 354.800 179.028,351.772 174.650,350.557 173.604 C 349.476 172.673,349.483 172.699,350.674 174.004 M267.429 174.229 C 267.281 174.815,267.238 175.372,267.332 175.466 C 267.427 175.560,267.624 175.158,267.771 174.571 C 267.919 173.985,267.962 173.428,267.868 173.334 C 267.773 173.240,267.576 173.642,267.429 174.229 M100.493 176.000 C 100.493 176.770,100.575 177.085,100.676 176.700 C 100.776 176.315,100.776 175.685,100.676 175.300 C 100.575 174.915,100.493 175.230,100.493 176.000 M199.268 175.400 C 199.262 175.840,199.411 176.560,199.600 177.000 C 200.038 178.019,200.038 176.968,199.600 175.600 C 199.343 174.796,199.277 174.757,199.268 175.400 M183.058 176.400 C 183.375 178.125,183.602 178.451,183.594 177.167 C 183.591 176.635,183.411 175.930,183.194 175.600 C 182.918 175.178,182.877 175.415,183.058 176.400 M44.266 177.500 C 44.136 178.545,44.172 180.030,44.347 180.800 C 44.593 181.887,44.668 181.463,44.680 178.900 C 44.697 175.126,44.602 174.805,44.266 177.500 M25.028 177.500 C 24.895 178.325,24.941 179.810,25.131 180.800 C 25.445 182.433,25.478 182.295,25.490 179.300 C 25.503 175.665,25.394 175.238,25.028 177.500 M100.093 178.800 C 100.093 179.570,100.175 179.885,100.276 179.500 C 100.376 179.115,100.376 178.485,100.276 178.100 C 100.175 177.715,100.093 178.030,100.093 178.800 M74.103 178.400 C 74.282 179.059,89.817 179.542,90.452 178.909 C 90.622 178.739,87.140 178.652,82.715 178.716 C 76.489 178.807,74.585 178.716,74.303 178.316 C 74.024 177.920,73.977 177.939,74.103 178.400 M200.068 179.000 C 200.062 179.440,200.211 180.160,200.400 180.600 C 200.838 181.619,200.838 180.568,200.400 179.200 C 200.143 178.396,200.077 178.357,200.068 179.000 M265.829 181.029 C 265.681 181.615,265.638 182.172,265.732 182.266 C 265.827 182.360,266.024 181.958,266.171 181.371 C 266.319 180.785,266.362 180.228,266.268 180.134 C 266.173 180.040,265.976 180.442,265.829 181.029 M100.501 181.800 C 100.505 182.680,100.587 182.993,100.683 182.495 C 100.779 181.998,100.775 181.278,100.675 180.895 C 100.575 180.513,100.496 180.920,100.501 181.800 M184.468 182.000 C 184.488 183.039,185.118 184.746,185.132 183.800 C 185.138 183.360,184.989 182.640,184.800 182.200 C 184.589 181.710,184.461 181.632,184.468 182.000 M200.868 182.200 C 200.862 182.640,201.011 183.360,201.200 183.800 C 201.638 184.819,201.638 183.768,201.200 182.400 C 200.943 181.596,200.877 181.557,200.868 182.200 M44.800 182.691 C 44.800 183.453,47.332 186.429,48.700 187.275 C 49.415 187.717,50.000 187.986,50.000 187.872 C 50.000 187.758,49.348 187.262,48.551 186.770 C 47.755 186.278,46.585 185.058,45.951 184.059 C 45.318 183.060,44.800 182.445,44.800 182.691 M265.029 184.229 C 264.881 184.815,264.838 185.372,264.932 185.466 C 265.027 185.560,265.224 185.158,265.371 184.571 C 265.519 183.985,265.562 183.428,265.468 183.334 C 265.373 183.240,265.176 183.642,265.029 184.229 M295.467 183.467 C 295.320 183.613,295.211 184.108,295.225 184.567 C 295.249 185.333,295.282 185.323,295.634 184.442 C 296.026 183.463,295.944 182.989,295.467 183.467 M25.606 184.233 C 25.609 184.655,25.795 185.270,26.018 185.600 C 26.315 186.038,26.352 185.876,26.156 185.000 C 25.827 183.529,25.598 183.210,25.606 184.233 M313.254 184.267 C 313.225 184.744,313.096 185.464,312.970 185.867 C 312.752 186.561,312.764 186.562,313.196 185.888 C 313.447 185.497,313.575 184.777,313.481 184.288 C 313.309 183.401,313.309 183.401,313.254 184.267 M373.844 184.600 C 374.173 186.071,374.402 186.390,374.394 185.367 C 374.391 184.945,374.205 184.330,373.982 184.000 C 373.685 183.562,373.648 183.724,373.844 184.600 M100.856 184.400 C 100.856 184.730,101.011 185.360,101.200 185.800 C 101.417 186.304,101.544 186.378,101.544 186.000 C 101.544 185.670,101.389 185.040,101.200 184.600 C 100.983 184.096,100.856 184.022,100.856 184.400 M219.851 186.360 C 219.493 187.455,219.211 188.586,219.225 188.875 C 219.239 189.164,219.600 188.336,220.027 187.035 C 220.454 185.734,220.736 184.603,220.653 184.520 C 220.570 184.437,220.209 185.265,219.851 186.360 M294.649 186.615 C 294.512 186.973,294.416 187.656,294.436 188.133 C 294.462 188.747,294.585 188.608,294.859 187.656 C 295.257 186.272,295.094 185.458,294.649 186.615 M246.644 187.400 C 246.973 188.871,247.202 189.190,247.194 188.167 C 247.191 187.745,247.005 187.130,246.782 186.800 C 246.485 186.362,246.448 186.524,246.644 187.400 M264.200 187.600 C 264.048 188.291,264.007 188.941,264.109 189.042 C 264.211 189.144,264.409 188.653,264.550 187.950 C 264.883 186.283,264.560 185.960,264.200 187.600 M123.600 187.020 C 123.600 187.267,126.905 189.119,128.600 189.821 C 129.480 190.186,130.110 190.392,130.000 190.280 C 129.682 189.955,123.600 186.857,123.600 187.020 M312.257 189.878 C 312.114 191.572,312.133 193.092,312.298 193.256 C 312.464 193.421,312.651 192.036,312.714 190.178 C 312.855 185.959,312.603 185.793,312.257 189.878 M280.250 188.850 C 279.917 190.517,280.240 190.840,280.600 189.200 C 280.752 188.509,280.793 187.859,280.691 187.758 C 280.589 187.656,280.391 188.147,280.250 188.850 M374.698 190.000 C 374.813 191.430,374.974 192.675,375.054 192.767 C 375.349 193.104,375.133 188.974,374.815 188.200 C 374.622 187.730,374.574 188.473,374.698 190.000 M51.400 188.800 C 52.060 189.237,52.780 189.595,53.000 189.596 C 53.220 189.596,52.811 189.238,52.090 188.799 C 50.392 187.763,49.836 187.764,51.400 188.800 M102.708 189.400 C 103.228 190.399,105.600 193.400,105.600 193.058 C 105.600 192.835,103.033 189.306,102.502 188.800 C 102.386 188.690,102.479 188.960,102.708 189.400 M202.456 189.200 C 202.456 189.530,202.611 190.160,202.800 190.600 C 203.017 191.104,203.144 191.178,203.144 190.800 C 203.144 190.470,202.989 189.840,202.800 189.400 C 202.583 188.896,202.456 188.822,202.456 189.200 M356.928 191.200 C 356.928 192.630,357.001 193.215,357.089 192.500 C 357.178 191.785,357.178 190.615,357.089 189.900 C 357.001 189.185,356.928 189.770,356.928 191.200 M263.429 191.029 C 263.281 191.615,263.238 192.172,263.332 192.266 C 263.427 192.360,263.624 191.958,263.771 191.371 C 263.919 190.785,263.962 190.228,263.868 190.134 C 263.773 190.040,263.576 190.442,263.429 191.029 M218.446 190.867 C 218.421 191.234,218.296 191.864,218.170 192.267 C 217.952 192.962,217.963 192.963,218.397 192.287 C 218.648 191.896,218.773 191.266,218.673 190.887 C 218.511 190.268,218.488 190.266,218.446 190.867 M279.450 192.050 C 279.117 193.717,279.440 194.040,279.800 192.400 C 279.952 191.709,279.993 191.059,279.891 190.958 C 279.789 190.856,279.591 191.347,279.450 192.050 M293.856 191.684 C 293.721 192.188,293.630 193.320,293.654 194.200 C 293.692 195.578,293.746 195.471,294.043 193.428 C 294.398 190.999,294.295 190.046,293.856 191.684 M248.244 192.600 C 248.573 194.071,248.802 194.390,248.794 193.367 C 248.791 192.945,248.605 192.330,248.382 192.000 C 248.085 191.562,248.048 191.724,248.244 192.600 M31.200 193.744 C 32.190 194.800,33.540 196.040,34.200 196.497 C 35.590 197.461,35.479 197.344,32.000 194.184 C 29.689 192.085,29.600 192.036,31.200 193.744 M203.268 192.600 C 203.262 193.040,203.411 193.760,203.600 194.200 C 204.038 195.219,204.038 194.168,203.600 192.800 C 203.343 191.996,203.277 191.957,203.268 192.600 M262.649 194.215 C 262.512 194.573,262.415 195.166,262.434 195.533 C 262.453 195.900,262.627 195.669,262.821 195.020 C 263.198 193.758,263.065 193.133,262.649 194.215 M107.869 195.309 C 109.987 197.013,110.605 197.321,109.000 195.873 C 108.120 195.080,107.251 194.423,107.069 194.415 C 106.887 194.407,107.247 194.809,107.869 195.309 M278.846 194.867 C 278.821 195.234,278.696 195.864,278.570 196.267 C 278.352 196.962,278.363 196.963,278.797 196.287 C 279.048 195.896,279.173 195.266,279.073 194.887 C 278.911 194.268,278.888 194.266,278.846 194.867 M204.034 196.400 C 204.046 196.730,204.211 197.360,204.400 197.800 L 204.744 198.600 204.766 197.800 C 204.778 197.360,204.613 196.730,204.400 196.400 C 204.055 195.867,204.015 195.867,204.034 196.400 M188.068 197.000 C 188.062 197.440,188.211 198.160,188.400 198.600 C 188.838 199.619,188.838 198.568,188.400 197.200 C 188.143 196.396,188.077 196.357,188.068 197.000 M261.829 197.829 C 261.681 198.415,261.638 198.972,261.732 199.066 C 261.827 199.160,262.024 198.758,262.171 198.171 C 262.319 197.585,262.362 197.028,262.268 196.934 C 262.173 196.840,261.976 197.242,261.829 197.829 M111.200 197.779 C 111.200 197.889,111.740 198.259,112.400 198.600 C 113.060 198.941,113.600 199.131,113.600 199.021 C 113.600 198.911,113.060 198.541,112.400 198.200 C 111.740 197.859,111.200 197.669,111.200 197.779 M278.046 198.067 C 278.021 198.434,277.896 199.064,277.770 199.467 C 277.552 200.162,277.563 200.163,277.997 199.487 C 278.248 199.096,278.373 198.466,278.273 198.087 C 278.111 197.468,278.088 197.466,278.046 198.067 M204.834 199.600 C 204.846 199.930,205.011 200.560,205.200 201.000 L 205.544 201.800 205.566 201.000 C 205.578 200.560,205.413 199.930,205.200 199.600 C 204.855 199.067,204.815 199.067,204.834 199.600 M188.868 200.200 C 188.862 200.640,189.011 201.360,189.200 201.800 C 189.638 202.819,189.638 201.768,189.200 200.400 C 188.943 199.596,188.877 199.557,188.868 200.200 M229.646 200.867 C 229.621 201.234,229.496 201.864,229.370 202.267 C 229.152 202.962,229.163 202.963,229.597 202.287 C 229.848 201.896,229.973 201.266,229.873 200.887 C 229.711 200.268,229.688 200.266,229.646 200.867 M277.050 202.050 C 276.717 203.717,277.040 204.040,277.400 202.400 C 277.552 201.709,277.593 201.059,277.491 200.958 C 277.389 200.856,277.191 201.347,277.050 202.050 M82.400 202.146 C 82.400 202.256,82.940 202.730,83.600 203.200 C 84.260 203.670,84.800 203.964,84.800 203.854 C 84.800 203.744,84.260 203.270,83.600 202.800 C 82.940 202.330,82.400 202.036,82.400 202.146 M205.612 203.200 C 205.612 203.530,205.787 204.070,206.000 204.400 C 206.345 204.933,206.388 204.933,206.388 204.400 C 206.388 204.070,206.213 203.530,206.000 203.200 C 205.655 202.667,205.612 202.667,205.612 203.200 M161.620 205.800 C 163.049 207.340,164.537 209.050,164.926 209.600 C 165.608 210.562,165.608 210.550,164.935 209.307 C 164.551 208.596,163.063 206.886,161.629 205.507 L 159.023 203.000 161.620 205.800 M189.606 203.833 C 189.609 204.255,189.795 204.870,190.018 205.200 C 190.315 205.638,190.352 205.476,190.156 204.600 C 189.827 203.129,189.598 202.810,189.606 203.833 M260.249 204.215 C 260.112 204.573,260.015 205.166,260.034 205.533 C 260.053 205.900,260.227 205.669,260.421 205.020 C 260.798 203.758,260.665 203.133,260.249 204.215 M276.446 204.867 C 276.421 205.234,276.296 205.864,276.170 206.267 C 275.952 206.962,275.963 206.963,276.397 206.287 C 276.648 205.896,276.773 205.266,276.673 204.887 C 276.511 204.268,276.488 204.266,276.446 204.867 M343.600 204.796 L 312.200 205.000 312.147 207.000 L 312.094 209.000 312.347 207.200 L 312.600 205.400 343.582 205.298 C 363.435 205.232,374.708 205.052,374.962 204.798 C 375.181 204.579,375.279 204.443,375.180 204.496 C 375.081 204.549,360.870 204.684,343.600 204.796 M228.046 205.867 C 228.021 206.124,227.884 206.664,227.741 207.067 C 227.540 207.636,227.594 207.697,227.979 207.342 C 228.252 207.091,228.389 206.551,228.284 206.142 C 228.179 205.734,228.072 205.610,228.046 205.867 M293.628 207.233 C 293.644 208.205,293.814 209.360,294.008 209.800 C 294.231 210.308,294.274 209.724,294.124 208.200 C 293.840 205.299,293.590 204.812,293.628 207.233 M190.406 207.033 C 190.409 207.455,190.595 208.070,190.818 208.400 C 191.115 208.838,191.152 208.676,190.956 207.800 C 190.627 206.329,190.398 206.010,190.406 207.033 M88.394 207.803 C 89.987 209.721,90.121 209.845,89.686 208.996 C 89.459 208.553,88.852 207.834,88.337 207.398 C 87.433 206.634,87.435 206.648,88.394 207.803 M275.646 208.067 C 275.621 208.434,275.496 209.064,275.370 209.467 C 275.152 210.162,275.163 210.163,275.597 209.487 C 275.848 209.096,275.973 208.466,275.873 208.087 C 275.711 207.468,275.688 207.466,275.646 208.067 M312.509 210.800 C 312.509 211.790,312.587 212.195,312.682 211.700 C 312.778 211.205,312.778 210.395,312.682 209.900 C 312.587 209.405,312.509 209.810,312.509 210.800 M191.268 210.200 C 191.262 210.640,191.411 211.360,191.600 211.800 C 192.038 212.819,192.038 211.768,191.600 210.400 C 191.343 209.596,191.277 209.557,191.268 210.200 M207.212 210.000 C 207.212 210.330,207.387 210.870,207.600 211.200 C 207.945 211.733,207.988 211.733,207.988 211.200 C 207.988 210.870,207.813 210.330,207.600 210.000 C 207.255 209.467,207.212 209.467,207.212 210.000 M274.650 212.050 C 274.509 212.753,274.469 213.402,274.559 213.492 C 274.650 213.583,274.848 213.091,275.000 212.400 C 275.152 211.709,275.193 211.059,275.091 210.958 C 274.989 210.856,274.791 211.347,274.650 212.050 M69.284 213.175 C 70.100 213.866,71.315 215.096,71.984 215.907 C 72.653 216.718,73.200 217.244,73.200 217.074 C 73.200 216.590,69.526 212.785,68.617 212.328 C 68.168 212.102,68.468 212.483,69.284 213.175 M294.456 212.800 C 294.456 213.130,294.611 213.760,294.800 214.200 C 295.017 214.704,295.144 214.778,295.144 214.400 C 295.144 214.070,294.989 213.440,294.800 213.000 C 294.583 212.496,294.456 212.422,294.456 212.800 M145.800 214.400 C 146.659 215.280,147.452 216.000,147.562 216.000 C 147.672 216.000,147.059 215.280,146.200 214.400 C 145.341 213.520,144.548 212.800,144.438 212.800 C 144.328 212.800,144.941 213.520,145.800 214.400 M208.056 213.200 C 208.056 213.530,208.211 214.160,208.400 214.600 C 208.617 215.104,208.744 215.178,208.744 214.800 C 208.744 214.470,208.589 213.840,208.400 213.400 C 208.183 212.896,208.056 212.822,208.056 213.200 M312.868 213.200 C 312.888 214.239,313.518 215.946,313.532 215.000 C 313.538 214.560,313.389 213.840,313.200 213.400 C 312.989 212.910,312.861 212.832,312.868 213.200 M192.034 213.800 C 192.022 214.240,192.187 214.870,192.400 215.200 C 192.914 215.995,192.914 214.996,192.400 213.800 L 192.056 213.000 192.034 213.800 M225.646 213.467 C 225.621 213.724,225.484 214.264,225.341 214.667 C 225.140 215.236,225.194 215.297,225.579 214.942 C 225.852 214.691,225.989 214.151,225.884 213.742 C 225.779 213.334,225.672 213.210,225.646 213.467 M257.849 214.215 C 257.712 214.573,257.615 215.166,257.634 215.533 C 257.653 215.900,257.827 215.669,258.021 215.020 C 258.398 213.758,258.265 213.133,257.849 214.215 M273.829 215.429 C 273.681 216.015,273.651 216.584,273.761 216.694 C 273.871 216.804,274.081 216.415,274.229 215.829 C 274.376 215.242,274.406 214.673,274.296 214.563 C 274.186 214.453,273.976 214.842,273.829 215.429 M167.481 217.200 C 167.606 218.410,167.774 219.475,167.854 219.567 C 168.135 219.887,167.917 216.991,167.587 216.000 C 167.371 215.354,167.334 215.780,167.481 217.200 M192.806 217.033 C 192.809 217.455,192.995 218.070,193.218 218.400 C 193.515 218.838,193.552 218.676,193.356 217.800 C 193.027 216.329,192.798 216.010,192.806 217.033 M92.578 220.885 C 92.590 223.241,92.722 224.861,92.872 224.485 C 93.217 223.615,93.191 219.376,92.831 217.800 C 92.678 217.129,92.566 218.490,92.578 220.885 M208.828 217.076 C 208.918 218.115,209.544 218.996,209.572 218.124 C 209.587 217.642,209.420 217.136,209.200 217.000 C 208.980 216.864,208.813 216.898,208.828 217.076 M256.845 218.100 C 256.448 219.289,256.462 219.334,257.005 218.624 C 257.332 218.196,257.600 217.611,257.600 217.324 C 257.600 216.432,257.297 216.743,256.845 218.100 M242.028 217.876 C 242.013 218.358,242.180 218.864,242.400 219.000 C 242.873 219.292,242.873 218.901,242.400 217.800 C 242.069 217.029,242.055 217.031,242.028 217.876 M73.268 218.200 C 73.262 218.640,73.411 219.360,73.600 219.800 C 74.038 220.819,74.038 219.768,73.600 218.400 C 73.343 217.596,73.277 217.557,73.268 218.200 M273.029 218.629 C 272.881 219.215,272.851 219.784,272.961 219.894 C 273.071 220.004,273.281 219.615,273.429 219.029 C 273.576 218.442,273.606 217.873,273.496 217.763 C 273.386 217.653,273.176 218.042,273.029 218.629 M148.600 221.200 C 148.600 222.698,148.732 223.716,148.894 223.462 C 149.056 223.208,149.188 222.190,149.188 221.200 C 149.188 220.210,149.056 219.192,148.894 218.938 C 148.732 218.684,148.600 219.702,148.600 221.200 M314.407 218.516 C 314.394 219.115,315.923 221.804,317.160 223.355 C 317.842 224.210,318.400 224.762,318.400 224.581 C 318.400 224.400,318.046 223.875,317.613 223.414 C 317.181 222.954,316.284 221.592,315.621 220.389 C 314.957 219.185,314.411 218.342,314.407 218.516 M242.828 220.276 C 242.813 220.758,242.980 221.264,243.200 221.400 C 243.673 221.692,243.673 221.301,243.200 220.200 C 242.869 219.429,242.855 219.431,242.828 220.276 M24.480 220.480 C 24.148 220.812,24.000 222.882,24.000 227.210 C 24.000 234.279,24.150 234.567,29.200 237.189 C 30.773 238.006,29.812 237.199,27.091 235.419 L 24.600 233.789 24.600 227.195 L 24.600 220.600 33.062 220.600 C 37.716 220.600,41.441 220.465,41.338 220.300 C 41.010 219.770,25.020 219.940,24.480 220.480 M99.688 220.472 C 99.143 221.017,98.968 233.409,99.500 233.739 C 99.665 233.841,99.800 230.926,99.800 227.262 L 99.800 220.600 107.971 220.491 C 114.226 220.408,116.227 220.502,116.502 220.891 C 116.773 221.275,116.821 221.253,116.697 220.800 C 116.478 219.994,100.474 219.686,99.688 220.472 M193.634 220.600 C 193.622 221.040,193.787 221.670,194.000 222.000 C 194.514 222.795,194.514 221.796,194.000 220.600 L 193.656 219.800 193.634 220.600 M73.440 222.840 C 73.293 223.757,73.252 224.585,73.347 224.680 C 73.442 224.776,73.646 224.110,73.800 223.200 C 73.954 222.290,73.996 221.462,73.893 221.360 C 73.790 221.257,73.587 221.923,73.440 222.840 M272.229 222.229 C 272.081 222.815,272.051 223.384,272.161 223.494 C 272.271 223.604,272.481 223.215,272.629 222.629 C 272.776 222.042,272.806 221.473,272.696 221.363 C 272.586 221.253,272.376 221.642,272.229 222.229 M356.267 221.467 C 356.120 221.613,356.003 221.928,356.006 222.167 C 356.010 222.417,356.148 222.386,356.335 222.091 C 356.582 221.702,358.440 221.607,364.229 221.691 L 371.800 221.800 372.016 227.800 L 372.233 233.800 372.316 228.133 C 372.362 225.016,372.291 222.181,372.157 221.833 C 371.904 221.174,356.905 220.829,356.267 221.467 M194.434 223.800 C 194.422 224.240,194.587 224.870,194.800 225.200 C 195.314 225.995,195.314 224.996,194.800 223.800 L 194.456 223.000 194.434 223.800 M299.000 225.200 C 299.341 225.860,299.711 226.400,299.821 226.400 C 299.931 226.400,299.741 225.860,299.400 225.200 C 299.059 224.540,298.689 224.000,298.579 224.000 C 298.469 224.000,298.659 224.540,299.000 225.200 M271.429 225.429 C 271.281 226.015,271.251 226.584,271.361 226.694 C 271.471 226.804,271.681 226.415,271.829 225.829 C 271.976 225.242,272.006 224.673,271.896 224.563 C 271.786 224.453,271.576 224.842,271.429 225.429 M72.364 226.100 C 72.109 226.595,71.518 227.449,71.050 227.997 L 70.200 228.994 71.141 228.198 C 72.033 227.443,73.442 225.200,73.024 225.200 C 72.916 225.200,72.619 225.605,72.364 226.100 M195.206 227.033 C 195.209 227.455,195.395 228.070,195.618 228.400 C 195.915 228.838,195.952 228.676,195.756 227.800 C 195.427 226.329,195.198 226.010,195.206 227.033 M145.497 228.366 C 143.853 229.419,143.625 229.791,145.075 229.054 C 145.776 228.697,146.461 228.224,146.598 228.003 C 146.919 227.484,146.823 227.515,145.497 228.366 M270.650 228.850 C 270.509 229.553,270.469 230.202,270.559 230.292 C 270.650 230.383,270.848 229.891,271.000 229.200 C 271.152 228.509,271.193 227.859,271.091 227.758 C 270.989 227.656,270.791 228.147,270.650 228.850 M301.944 229.518 C 303.927 232.038,311.200 238.258,311.200 237.434 C 311.200 237.326,310.345 236.655,309.300 235.941 C 308.255 235.227,305.870 233.106,304.000 231.227 C 302.130 229.348,301.205 228.579,301.944 229.518 M123.200 230.000 C 123.530 230.213,124.070 230.388,124.400 230.388 C 124.933 230.388,124.933 230.345,124.400 230.000 C 124.070 229.787,123.530 229.612,123.200 229.612 C 122.667 229.612,122.667 229.655,123.200 230.000 M196.056 230.400 C 196.056 230.730,196.211 231.360,196.400 231.800 C 196.617 232.304,196.744 232.378,196.744 232.000 C 196.744 231.670,196.589 231.040,196.400 230.600 C 196.183 230.096,196.056 230.022,196.056 230.400 M52.000 230.800 C 52.550 230.976,53.360 231.120,53.800 231.120 C 54.433 231.120,54.392 231.054,53.600 230.800 C 53.050 230.624,52.240 230.480,51.800 230.480 C 51.167 230.480,51.208 230.546,52.000 230.800 M63.400 230.800 C 62.381 231.238,63.432 231.238,64.800 230.800 C 65.604 230.543,65.643 230.477,65.000 230.468 C 64.560 230.462,63.840 230.611,63.400 230.800 M126.800 230.800 C 127.350 230.976,128.250 231.120,128.800 231.120 L 129.800 231.120 128.800 230.800 C 128.250 230.624,127.350 230.480,126.800 230.480 L 125.800 230.480 126.800 230.800 M138.600 230.800 C 137.581 231.238,138.632 231.238,140.000 230.800 C 140.804 230.543,140.843 230.477,140.200 230.468 C 139.760 230.462,139.040 230.611,138.600 230.800 M328.800 230.800 C 329.130 231.013,329.670 231.188,330.000 231.188 C 330.533 231.188,330.533 231.145,330.000 230.800 C 329.670 230.587,329.130 230.412,328.800 230.412 C 328.267 230.412,328.267 230.455,328.800 230.800 M347.000 230.800 C 346.496 231.017,346.422 231.144,346.800 231.144 C 347.130 231.144,347.760 230.989,348.200 230.800 C 348.704 230.583,348.778 230.456,348.400 230.456 C 348.070 230.456,347.440 230.611,347.000 230.800 M269.829 232.229 C 269.681 232.815,269.638 233.372,269.732 233.466 C 269.827 233.560,270.024 233.158,270.171 232.571 C 270.319 231.985,270.362 231.428,270.268 231.334 C 270.173 231.240,269.976 231.642,269.829 232.229 M333.823 231.653 C 334.470 231.792,336.350 231.905,338.000 231.905 C 339.650 231.905,341.530 231.792,342.177 231.653 C 342.825 231.514,340.945 231.400,338.000 231.400 C 335.055 231.400,333.175 231.514,333.823 231.653 M164.752 232.489 C 164.490 232.979,163.365 234.374,162.252 235.589 L 160.227 237.800 162.227 235.900 C 164.034 234.184,165.962 231.600,165.437 231.600 C 165.322 231.600,165.014 232.000,164.752 232.489 M196.834 233.800 C 196.822 234.240,196.987 234.870,197.200 235.200 C 197.714 235.995,197.714 234.996,197.200 233.800 L 196.856 233.000 196.834 233.800 M269.029 235.429 C 268.881 236.015,268.838 236.572,268.932 236.666 C 269.027 236.760,269.224 236.358,269.371 235.771 C 269.519 235.185,269.562 234.628,269.468 234.534 C 269.373 234.440,269.176 234.842,269.029 235.429 M84.885 237.428 C 82.668 239.285,82.429 239.891,84.562 238.245 C 86.581 236.689,87.747 235.598,87.361 235.628 C 87.163 235.644,86.048 236.454,84.885 237.428 M102.800 236.179 C 102.800 236.289,103.340 236.659,104.000 237.000 C 104.660 237.341,105.200 237.531,105.200 237.421 C 105.200 237.311,104.660 236.941,104.000 236.600 C 103.340 236.259,102.800 236.069,102.800 236.179 M197.668 237.000 C 197.662 237.440,197.811 238.160,198.000 238.600 C 198.438 239.619,198.438 238.568,198.000 237.200 C 197.743 236.396,197.677 236.357,197.668 237.000 M268.229 239.029 C 268.081 239.615,268.038 240.172,268.132 240.266 C 268.227 240.360,268.424 239.958,268.571 239.371 C 268.719 238.785,268.762 238.228,268.668 238.134 C 268.573 238.040,268.376 238.442,268.229 239.029 M217.267 239.980 L 216.842 241.200 208.041 241.200 C 200.081 241.200,199.201 241.133,198.832 240.500 C 198.608 240.115,198.419 240.003,198.412 240.251 C 198.379 241.464,199.562 241.615,208.245 241.508 L 216.990 241.400 217.531 240.270 C 217.829 239.648,217.987 239.054,217.883 238.949 C 217.778 238.845,217.501 239.308,217.267 239.980 M249.200 240.708 C 249.200 241.583,267.207 242.158,267.739 241.300 C 267.841 241.135,263.963 241.052,259.121 241.115 C 252.878 241.197,250.156 241.095,249.759 240.766 C 249.419 240.484,249.200 240.461,249.200 240.708 M41.600 241.982 C 41.930 242.205,42.545 242.391,42.967 242.394 C 43.990 242.402,43.671 242.173,42.200 241.844 C 41.324 241.648,41.162 241.685,41.600 241.982 M116.800 241.982 C 117.130 242.205,117.745 242.391,118.167 242.394 C 119.190 242.402,118.871 242.173,117.400 241.844 C 116.524 241.648,116.362 241.685,116.800 241.982 M150.400 242.000 C 149.576 242.264,149.541 242.326,150.200 242.354 C 150.640 242.373,151.270 242.213,151.600 242.000 C 152.301 241.547,151.814 241.547,150.400 242.000 M354.400 242.000 C 353.576 242.264,353.541 242.326,354.200 242.354 C 354.640 242.373,355.270 242.213,355.600 242.000 C 356.301 241.547,355.814 241.547,354.400 242.000 M45.200 242.800 C 45.530 243.013,46.250 243.173,46.800 243.154 L 47.800 243.120 46.800 242.800 C 45.258 242.306,44.436 242.306,45.200 242.800 M72.000 242.800 C 71.176 243.064,71.141 243.126,71.800 243.154 C 72.240 243.173,72.870 243.013,73.200 242.800 C 73.901 242.347,73.414 242.347,72.000 242.800 M120.400 242.794 C 120.730 243.011,121.435 243.191,121.967 243.194 C 123.251 243.202,122.925 242.975,121.200 242.658 C 120.215 242.477,119.978 242.518,120.400 242.794 M147.000 242.800 C 145.893 243.082,145.877 243.109,146.800 243.147 C 147.350 243.169,148.070 243.013,148.400 242.800 C 149.081 242.360,148.729 242.360,147.000 242.800 M324.400 242.782 C 324.730 243.005,325.345 243.191,325.767 243.194 C 326.790 243.202,326.471 242.973,325.000 242.644 C 324.124 242.448,323.962 242.485,324.400 242.782 M350.600 242.800 C 349.493 243.082,349.477 243.109,350.400 243.147 C 350.950 243.169,351.670 243.013,352.000 242.800 C 352.681 242.360,352.329 242.360,350.600 242.800 M50.000 243.603 C 50.989 243.917,55.088 244.134,54.767 243.856 C 54.675 243.777,53.340 243.616,51.800 243.499 C 50.173 243.375,49.419 243.419,50.000 243.603 M66.400 243.600 L 64.200 243.870 66.200 243.907 C 67.300 243.927,68.560 243.789,69.000 243.600 C 69.902 243.212,69.562 243.212,66.400 243.600 M125.200 243.603 C 126.189 243.917,130.288 244.134,129.967 243.856 C 129.875 243.777,128.540 243.616,127.000 243.499 C 125.373 243.375,124.619 243.419,125.200 243.603 M141.600 243.600 L 139.400 243.870 141.400 243.907 C 142.500 243.927,143.760 243.789,144.200 243.600 C 145.102 243.212,144.762 243.212,141.600 243.600 M328.600 243.610 C 329.819 243.910,335.472 244.121,335.167 243.855 C 335.075 243.775,333.290 243.621,331.200 243.512 C 329.110 243.404,327.940 243.448,328.600 243.610 M344.000 243.600 L 341.000 243.856 343.800 243.888 C 345.340 243.906,347.050 243.776,347.600 243.600 C 348.778 243.223,348.425 243.223,344.000 243.600 " stroke="none" fill="#e9b2b2" fill-rule="evenodd"></path><path id="path3" d="M334.900 156.276 C 335.285 156.376,335.915 156.376,336.300 156.276 C 336.685 156.175,336.370 156.093,335.600 156.093 C 334.830 156.093,334.515 156.175,334.900 156.276 M226.661 166.300 C 226.558 166.465,228.482 166.553,230.937 166.495 C 239.028 166.305,239.896 166.152,233.324 166.076 C 229.762 166.034,226.763 166.135,226.661 166.300 M74.134 175.200 C 74.134 176.850,74.205 177.525,74.291 176.700 C 74.378 175.875,74.378 174.525,74.291 173.700 C 74.205 172.875,74.134 173.550,74.134 175.200 M100.509 178.800 C 100.509 179.790,100.587 180.195,100.682 179.700 C 100.778 179.205,100.778 178.395,100.682 177.900 C 100.587 177.405,100.509 177.810,100.509 178.800 M374.901 194.200 C 374.905 195.080,374.987 195.393,375.083 194.895 C 375.179 194.398,375.175 193.678,375.075 193.295 C 374.975 192.913,374.896 193.320,374.901 194.200 M293.728 198.000 C 293.728 199.430,293.801 200.015,293.889 199.300 C 293.978 198.585,293.978 197.415,293.889 196.700 C 293.801 195.985,293.728 196.570,293.728 198.000 M293.720 203.600 C 293.720 204.810,293.795 205.305,293.887 204.700 C 293.978 204.095,293.978 203.105,293.887 202.500 C 293.795 201.895,293.720 202.390,293.720 203.600 M92.514 221.400 C 92.517 222.500,92.595 222.903,92.687 222.295 C 92.779 221.686,92.777 220.786,92.682 220.295 C 92.587 219.803,92.511 220.300,92.514 221.400 M167.714 221.400 C 167.717 222.500,167.795 222.903,167.887 222.295 C 167.979 221.686,167.977 220.786,167.882 220.295 C 167.787 219.803,167.711 220.300,167.714 221.400 M116.460 224.076 C 116.427 225.768,116.535 227.237,116.700 227.339 C 116.865 227.442,116.949 226.507,116.887 225.263 C 116.692 221.356,116.522 220.885,116.460 224.076 M356.128 224.800 C 356.128 226.230,356.201 226.815,356.289 226.100 C 356.378 225.385,356.378 224.215,356.289 223.500 C 356.201 222.785,356.128 223.370,356.128 224.800 M58.105 231.487 C 58.714 231.579,59.614 231.577,60.105 231.482 C 60.597 231.387,60.100 231.311,59.000 231.314 C 57.900 231.317,57.497 231.395,58.105 231.487 M133.305 231.487 C 133.914 231.579,134.814 231.577,135.305 231.482 C 135.797 231.387,135.300 231.311,134.200 231.314 C 133.100 231.317,132.697 231.395,133.305 231.487 M57.100 243.896 C 58.475 243.974,60.725 243.974,62.100 243.896 C 63.475 243.818,62.350 243.754,59.600 243.754 C 56.850 243.754,55.725 243.818,57.100 243.896 M132.300 243.896 C 133.675 243.974,135.925 243.974,137.300 243.896 C 138.675 243.818,137.550 243.754,134.800 243.754 C 132.050 243.754,130.925 243.818,132.300 243.896 M336.711 243.893 C 337.651 243.978,339.091 243.977,339.911 243.891 C 340.730 243.805,339.960 243.736,338.200 243.737 C 336.440 243.739,335.770 243.809,336.711 243.893 " stroke="none" fill="#ecc4c4" fill-rule="evenodd"></path><path id="path4" d="M49.400 156.800 L 47.800 157.086 49.200 157.103 C 49.970 157.113,51.050 156.976,51.600 156.800 C 52.885 156.388,51.699 156.388,49.400 156.800 M64.600 156.786 C 65.357 157.125,68.721 157.364,68.367 157.054 C 68.275 156.974,67.210 156.800,66.000 156.668 C 64.563 156.512,64.078 156.552,64.600 156.786 M124.200 156.800 L 122.600 157.086 124.200 157.103 C 125.080 157.113,126.250 156.976,126.800 156.800 L 127.800 156.480 126.800 156.497 C 126.250 156.506,125.080 156.642,124.200 156.800 M139.800 156.797 C 140.564 157.128,143.514 157.355,143.167 157.056 C 143.075 156.977,142.100 156.809,141.000 156.682 C 139.713 156.533,139.285 156.574,139.800 156.797 M327.000 156.800 L 325.400 157.086 326.800 157.115 C 327.570 157.131,328.560 156.989,329.000 156.800 C 329.943 156.395,329.262 156.395,327.000 156.800 M342.200 156.790 C 342.964 157.128,345.514 157.357,345.167 157.056 C 345.075 156.976,344.190 156.804,343.200 156.673 C 341.998 156.514,341.666 156.553,342.200 156.790 M45.000 157.600 L 44.200 157.944 45.000 157.966 C 45.440 157.978,46.070 157.813,46.400 157.600 C 47.195 157.086,46.196 157.086,45.000 157.600 M70.200 157.600 C 70.640 157.789,71.450 157.938,72.000 157.932 L 73.000 157.920 72.000 157.600 C 71.450 157.424,70.640 157.274,70.200 157.268 L 69.400 157.256 70.200 157.600 M120.200 157.600 C 119.696 157.817,119.622 157.944,120.000 157.944 C 120.330 157.944,120.960 157.789,121.400 157.600 C 121.904 157.383,121.978 157.256,121.600 157.256 C 121.270 157.256,120.640 157.411,120.200 157.600 M145.400 157.600 C 145.840 157.789,146.560 157.944,147.000 157.944 L 147.800 157.944 147.000 157.600 C 146.560 157.411,145.840 157.256,145.400 157.256 L 144.600 157.256 145.400 157.600 M323.000 157.600 C 322.496 157.817,322.422 157.944,322.800 157.944 C 323.130 157.944,323.760 157.789,324.200 157.600 C 324.704 157.383,324.778 157.256,324.400 157.256 C 324.070 157.256,323.440 157.411,323.000 157.600 M347.000 157.600 C 347.440 157.789,348.160 157.938,348.600 157.932 C 349.243 157.923,349.204 157.857,348.400 157.600 C 347.032 157.162,345.981 157.162,347.000 157.600 M149.200 158.382 C 149.530 158.605,150.145 158.791,150.567 158.794 C 151.590 158.802,151.271 158.573,149.800 158.244 C 148.924 158.048,148.762 158.085,149.200 158.382 M171.680 159.280 C 171.145 159.815,170.979 169.816,171.500 170.139 C 171.665 170.242,171.745 167.988,171.677 165.131 C 171.593 161.565,171.703 159.758,172.026 159.368 C 172.600 158.677,172.347 158.613,171.680 159.280 M194.714 159.400 C 194.936 159.840,195.311 160.650,195.548 161.200 C 195.960 162.157,195.969 162.149,195.740 161.000 C 195.608 160.340,195.233 159.530,194.906 159.200 C 194.378 158.668,194.356 158.690,194.714 159.400 M81.200 160.520 C 81.518 160.845,87.600 163.943,87.600 163.780 C 87.600 163.533,84.295 161.681,82.600 160.979 C 81.720 160.614,81.090 160.408,81.200 160.520 M110.500 161.246 C 109.137 162.119,108.695 162.706,109.900 162.043 C 110.818 161.539,112.256 160.427,112.000 160.419 C 111.890 160.416,111.215 160.788,110.500 161.246 M313.000 161.200 C 312.340 161.637,311.980 161.992,312.200 161.988 C 312.601 161.982,314.776 160.423,314.400 160.412 C 314.290 160.408,313.660 160.763,313.000 161.200 M33.760 162.352 C 32.902 162.985,31.480 164.286,30.600 165.242 C 29.280 166.676,29.420 166.596,31.400 164.785 C 32.720 163.577,34.250 162.286,34.800 161.915 C 35.350 161.545,35.692 161.233,35.560 161.221 C 35.428 161.209,34.618 161.718,33.760 162.352 M310.122 163.029 L 309.000 164.058 310.300 163.154 C 311.015 162.657,311.600 162.193,311.600 162.125 C 311.600 161.809,311.158 162.080,310.122 163.029 M360.000 163.055 C 360.770 163.670,362.496 165.170,363.836 166.387 C 365.490 167.890,365.318 167.668,363.300 165.695 C 361.666 164.097,359.940 162.598,359.465 162.363 C 358.989 162.127,359.230 162.439,360.000 163.055 M161.200 162.921 C 161.200 163.012,162.235 163.751,163.500 164.563 C 164.765 165.375,165.308 165.621,164.706 165.110 C 163.518 164.100,161.200 162.653,161.200 162.921 M196.056 163.600 C 196.056 163.930,196.211 164.560,196.400 165.000 C 196.617 165.504,196.744 165.578,196.744 165.200 C 196.744 164.870,196.589 164.240,196.400 163.800 C 196.183 163.296,196.056 163.222,196.056 163.600 M270.046 165.267 C 270.021 165.634,269.896 166.264,269.770 166.667 C 269.552 167.362,269.563 167.363,269.997 166.687 C 270.248 166.296,270.373 165.666,270.273 165.287 C 270.111 164.668,270.088 164.666,270.046 165.267 M305.186 167.100 L 303.000 169.400 305.300 167.214 C 306.565 166.011,307.600 164.976,307.600 164.914 C 307.600 164.617,307.218 164.963,305.186 167.100 M90.561 172.000 C 90.561 175.410,90.622 176.805,90.697 175.100 C 90.772 173.395,90.772 170.605,90.697 168.900 C 90.622 167.195,90.561 168.590,90.561 172.000 M196.806 167.033 C 196.809 167.455,196.995 168.070,197.218 168.400 C 197.515 168.838,197.552 168.676,197.356 167.800 C 197.027 166.329,196.798 166.010,196.806 167.033 M165.758 172.200 C 165.758 175.280,165.821 176.487,165.897 174.882 C 165.973 173.278,165.973 170.758,165.896 169.282 C 165.819 167.807,165.757 169.120,165.758 172.200 M240.406 168.633 C 240.409 169.055,240.595 169.670,240.818 170.000 C 241.115 170.438,241.152 170.276,240.956 169.400 C 240.627 167.929,240.398 167.610,240.406 168.633 M27.836 168.742 C 27.394 169.458,26.766 171.382,27.099 171.000 C 27.540 170.494,28.439 168.400,28.215 168.400 C 28.123 168.400,27.952 168.554,27.836 168.742 M56.900 168.696 C 58.165 168.775,60.235 168.775,61.500 168.696 C 62.765 168.616,61.730 168.551,59.200 168.551 C 56.670 168.551,55.635 168.616,56.900 168.696 M131.916 168.697 C 133.299 168.775,135.459 168.774,136.716 168.695 C 137.972 168.616,136.840 168.552,134.200 168.553 C 131.560 168.553,130.532 168.618,131.916 168.697 M269.029 169.429 C 268.881 170.015,268.838 170.572,268.932 170.666 C 269.027 170.760,269.224 170.358,269.371 169.771 C 269.519 169.185,269.562 168.628,269.468 168.534 C 269.373 168.440,269.176 168.842,269.029 169.429 M333.315 168.696 C 334.588 168.776,336.568 168.775,337.715 168.694 C 338.862 168.614,337.820 168.549,335.400 168.550 C 332.980 168.551,332.042 168.616,333.315 168.696 M50.670 169.381 C 49.355 169.850,48.308 170.424,48.833 170.389 C 49.440 170.348,53.280 168.854,52.800 168.846 C 52.470 168.840,51.512 169.081,50.670 169.381 M327.600 169.200 C 326.796 169.457,326.757 169.523,327.400 169.532 C 327.840 169.538,328.560 169.389,329.000 169.200 C 330.019 168.762,328.968 168.762,327.600 169.200 M367.455 170.600 C 368.067 171.480,368.620 172.275,368.684 172.367 C 368.748 172.458,368.800 172.362,368.800 172.152 C 368.800 171.942,368.247 171.147,367.571 170.385 L 366.342 169.000 367.455 170.600 M344.000 169.698 C 344.323 170.018,348.000 171.571,348.000 171.388 C 348.000 171.296,347.505 170.969,346.900 170.661 C 345.702 170.052,343.678 169.380,344.000 169.698 M291.200 170.400 L 287.800 170.651 291.000 170.719 C 292.760 170.757,294.470 170.613,294.800 170.400 C 295.130 170.187,295.220 170.043,295.000 170.081 C 294.780 170.118,293.070 170.262,291.200 170.400 M70.800 170.481 C 71.165 170.809,74.400 172.390,74.400 172.240 C 74.400 171.963,72.603 170.916,71.600 170.608 C 71.050 170.439,70.690 170.382,70.800 170.481 M173.900 170.693 C 174.835 170.777,176.365 170.777,177.300 170.693 C 178.235 170.609,177.470 170.540,175.600 170.540 C 173.730 170.540,172.965 170.609,173.900 170.693 M121.832 171.406 C 120.955 172.070,119.606 174.004,119.604 174.600 C 119.604 174.820,119.976 174.387,120.433 173.639 C 120.889 172.890,121.654 171.951,122.131 171.552 C 123.165 170.689,122.931 170.575,121.832 171.406 M285.503 171.700 C 284.985 172.195,284.843 172.384,285.189 172.121 C 285.534 171.858,286.263 171.464,286.808 171.246 C 287.468 170.983,287.573 170.842,287.122 170.825 C 286.750 170.811,286.021 171.205,285.503 171.700 M322.000 171.636 C 321.336 172.179,321.269 172.315,321.800 172.040 C 323.105 171.366,323.828 170.812,323.400 170.815 C 323.180 170.817,322.550 171.186,322.000 171.636 M148.500 171.722 C 149.038 172.157,149.200 172.895,149.200 174.911 C 149.200 179.099,148.550 178.800,157.643 178.800 C 162.019 178.800,165.600 178.665,165.600 178.500 C 165.600 178.335,162.045 178.200,157.700 178.200 L 149.800 178.200 149.683 175.105 C 149.580 172.369,149.464 171.961,148.683 171.583 C 147.883 171.196,147.866 171.209,148.500 171.722 M319.375 173.700 L 318.200 175.000 319.500 173.825 C 320.215 173.179,320.800 172.594,320.800 172.525 C 320.800 172.216,320.470 172.488,319.375 173.700 M350.800 173.800 C 351.546 174.570,352.247 175.200,352.357 175.200 C 352.467 175.200,351.946 174.570,351.200 173.800 C 350.454 173.030,349.753 172.400,349.643 172.400 C 349.533 172.400,350.054 173.030,350.800 173.800 M101.056 174.084 C 100.921 174.588,100.827 175.360,100.846 175.800 C 100.865 176.240,101.045 175.898,101.246 175.040 C 101.636 173.378,101.470 172.540,101.056 174.084 M198.456 174.000 C 198.456 174.330,198.611 174.960,198.800 175.400 C 199.017 175.904,199.144 175.978,199.144 175.600 C 199.144 175.270,198.989 174.640,198.800 174.200 C 198.583 173.696,198.456 173.622,198.456 174.000 M316.674 176.433 C 316.055 177.295,315.628 178.000,315.727 178.000 C 316.003 178.000,318.099 175.166,317.940 175.007 C 317.863 174.930,317.293 175.572,316.674 176.433 M267.429 176.229 C 267.281 176.815,267.238 177.372,267.332 177.466 C 267.427 177.560,267.624 177.158,267.771 176.571 C 267.919 175.985,267.962 175.428,267.868 175.334 C 267.773 175.240,267.576 175.642,267.429 176.229 M25.744 179.200 C 25.744 181.290,25.812 182.145,25.894 181.100 C 25.976 180.055,25.976 178.345,25.894 177.300 C 25.812 176.255,25.744 177.110,25.744 179.200 M371.219 177.600 C 371.701 178.810,372.239 180.250,372.414 180.800 C 372.588 181.350,372.747 181.509,372.766 181.153 C 372.804 180.426,371.260 176.415,370.704 175.800 C 370.505 175.580,370.737 176.390,371.219 177.600 M43.852 176.900 C 43.520 178.140,43.551 180.503,43.906 181.062 C 44.068 181.316,44.200 180.281,44.200 178.762 C 44.200 175.681,44.191 175.634,43.852 176.900 M199.256 177.200 C 199.256 177.530,199.411 178.160,199.600 178.600 C 199.817 179.104,199.944 179.178,199.944 178.800 C 199.944 178.470,199.789 177.840,199.600 177.400 C 199.383 176.896,199.256 176.822,199.256 177.200 M118.840 178.833 C 118.862 179.805,119.025 181.050,119.202 181.600 C 119.395 182.200,119.437 181.560,119.306 180.000 C 119.051 176.962,118.782 176.289,118.840 178.833 M74.399 178.500 C 74.400 178.665,78.045 178.764,82.500 178.721 C 90.605 178.641,89.653 178.499,79.699 178.304 C 76.784 178.247,74.399 178.335,74.399 178.500 M297.077 179.877 C 296.700 180.893,296.458 181.791,296.538 181.872 C 296.619 181.952,297.000 181.193,297.385 180.185 C 297.770 179.176,298.012 178.279,297.923 178.190 C 297.835 178.101,297.454 178.860,297.077 179.877 M266.600 179.600 C 266.448 180.291,266.407 180.941,266.509 181.042 C 266.611 181.144,266.809 180.653,266.950 179.950 C 267.283 178.283,266.960 177.960,266.600 179.600 M200.056 180.800 C 200.056 181.130,200.211 181.760,200.400 182.200 C 200.617 182.704,200.744 182.778,200.744 182.400 C 200.744 182.070,200.589 181.440,200.400 181.000 C 200.183 180.496,200.056 180.422,200.056 180.800 M100.828 182.433 C 100.844 182.965,101.019 183.760,101.219 184.200 C 101.471 184.758,101.507 184.515,101.338 183.400 C 101.055 181.543,100.787 181.036,100.828 182.433 M185.256 183.600 C 185.256 183.930,185.411 184.560,185.600 185.000 C 185.817 185.504,185.944 185.578,185.944 185.200 C 185.944 184.870,185.789 184.240,185.600 183.800 C 185.383 183.296,185.256 183.222,185.256 183.600 M45.200 184.366 C 45.200 184.726,48.354 187.798,48.494 187.574 C 48.553 187.478,47.836 186.656,46.901 185.747 C 45.965 184.838,45.200 184.216,45.200 184.366 M312.629 185.029 C 312.481 185.615,312.438 186.172,312.532 186.266 C 312.627 186.360,312.824 185.958,312.971 185.371 C 313.119 184.785,313.162 184.228,313.068 184.134 C 312.973 184.040,312.776 184.442,312.629 185.029 M121.800 186.000 C 122.659 186.880,123.452 187.600,123.562 187.600 C 123.672 187.600,123.059 186.880,122.200 186.000 C 121.341 185.120,120.548 184.400,120.438 184.400 C 120.328 184.400,120.941 185.120,121.800 186.000 M356.668 185.800 C 356.971 187.777,357.202 188.114,357.194 186.567 C 357.191 185.925,357.016 185.130,356.805 184.800 C 356.545 184.391,356.501 184.710,356.668 185.800 M295.249 186.200 C 295.216 186.640,295.096 187.450,294.983 188.000 L 294.777 189.000 295.206 188.019 C 295.442 187.479,295.561 186.669,295.472 186.219 C 295.313 185.421,295.307 185.421,295.249 186.200 M27.059 187.500 C 27.160 187.885,27.600 188.650,28.036 189.200 C 28.768 190.122,28.763 190.067,27.975 188.500 C 27.065 186.692,26.759 186.358,27.059 187.500 M186.012 187.200 C 186.012 187.530,186.187 188.070,186.400 188.400 C 186.745 188.933,186.788 188.933,186.788 188.400 C 186.788 188.070,186.613 187.530,186.400 187.200 C 186.055 186.667,186.012 186.667,186.012 187.200 M374.073 187.800 C 374.058 188.460,374.195 189.720,374.377 190.600 C 374.813 192.706,374.850 190.814,374.420 188.400 C 374.180 187.050,374.093 186.900,374.073 187.800 M201.668 187.600 C 201.688 188.639,202.318 190.346,202.332 189.400 C 202.338 188.960,202.189 188.240,202.000 187.800 C 201.789 187.310,201.661 187.232,201.668 187.600 M311.886 189.400 C 311.733 190.280,311.629 191.630,311.653 192.400 C 311.685 193.401,311.799 193.117,312.053 191.400 C 312.456 188.679,312.311 186.946,311.886 189.400 M103.763 190.329 C 104.084 190.950,104.660 191.715,105.042 192.029 C 105.434 192.352,105.249 191.861,104.615 190.900 C 103.332 188.955,102.904 188.668,103.763 190.329 M357.272 191.297 L 357.200 193.593 334.700 193.700 L 312.200 193.807 334.713 193.903 C 353.527 193.984,357.260 193.910,357.436 193.449 C 357.553 193.146,357.580 192.021,357.496 190.949 L 357.344 189.000 357.272 191.297 M232.800 190.037 C 232.800 190.310,232.918 190.415,233.063 190.270 C 233.208 190.125,233.597 190.230,233.928 190.503 C 234.421 190.910,234.494 190.891,234.332 190.400 C 234.087 189.659,232.800 189.355,232.800 190.037 M264.049 190.200 C 264.016 190.640,263.896 191.450,263.783 192.000 L 263.577 193.000 264.006 192.019 C 264.242 191.479,264.361 190.669,264.272 190.219 C 264.113 189.421,264.107 189.421,264.049 190.200 M294.225 192.425 C 294.070 193.994,294.027 195.361,294.129 195.462 C 294.231 195.564,294.443 194.366,294.600 192.800 C 294.757 191.234,294.800 189.867,294.696 189.763 C 294.592 189.658,294.380 190.856,294.225 192.425 M29.500 191.400 C 29.957 192.060,31.016 193.230,31.853 194.000 C 33.070 195.118,32.983 194.958,31.422 193.200 C 28.796 190.244,28.526 189.991,29.500 191.400 M203.268 194.400 C 203.288 195.439,203.918 197.146,203.932 196.200 C 203.938 195.760,203.789 195.040,203.600 194.600 C 203.389 194.110,203.261 194.032,203.268 194.400 M107.744 194.709 C 108.060 195.221,110.400 196.953,110.400 196.675 C 110.400 196.576,109.739 195.991,108.932 195.375 C 108.124 194.759,107.589 194.459,107.744 194.709 M141.200 195.016 C 141.200 195.128,141.605 195.377,142.100 195.569 C 142.595 195.761,143.945 196.294,145.100 196.753 C 146.255 197.213,147.200 197.496,147.200 197.384 C 147.200 197.272,146.795 197.023,146.300 196.831 C 145.805 196.639,144.455 196.106,143.300 195.647 C 142.145 195.187,141.200 194.904,141.200 195.016 M374.950 199.800 C 374.951 202.220,375.016 203.158,375.096 201.885 C 375.176 200.612,375.175 198.632,375.094 197.485 C 375.014 196.338,374.949 197.380,374.950 199.800 M70.000 196.589 C 70.000 196.906,72.900 198.033,73.128 197.805 C 73.241 197.692,73.235 197.600,73.116 197.600 C 72.996 197.600,72.246 197.328,71.449 196.995 C 70.652 196.662,70.000 196.479,70.000 196.589 M236.012 197.200 C 236.012 197.530,236.187 198.070,236.400 198.400 C 236.745 198.933,236.788 198.933,236.788 198.400 C 236.788 198.070,236.613 197.530,236.400 197.200 C 236.055 196.667,236.012 196.667,236.012 197.200 M216.649 197.815 C 216.512 198.173,216.415 198.766,216.434 199.133 C 216.453 199.500,216.627 199.269,216.821 198.620 C 217.198 197.358,217.065 196.733,216.649 197.815 M277.449 198.615 C 277.312 198.973,277.215 199.566,277.234 199.933 C 277.253 200.300,277.427 200.069,277.621 199.420 C 277.998 198.158,277.865 197.533,277.449 198.615 M75.200 199.000 C 75.750 199.314,76.380 199.572,76.600 199.572 C 76.820 199.572,76.550 199.314,76.000 199.000 C 75.450 198.686,74.820 198.428,74.600 198.428 C 74.380 198.428,74.650 198.686,75.200 199.000 M261.654 200.267 C 261.625 200.744,261.496 201.464,261.370 201.867 C 261.152 202.561,261.164 202.562,261.596 201.888 C 261.847 201.497,261.975 200.777,261.881 200.288 C 261.709 199.401,261.709 199.401,261.654 200.267 M117.600 200.800 C 118.370 201.222,119.180 201.566,119.400 201.566 C 119.620 201.566,119.170 201.222,118.400 200.800 C 117.630 200.378,116.820 200.034,116.600 200.034 C 116.380 200.034,116.830 200.378,117.600 200.800 M189.444 201.000 C 189.773 202.471,190.002 202.790,189.994 201.767 C 189.991 201.345,189.805 200.730,189.582 200.400 C 189.285 199.962,189.248 200.124,189.444 201.000 M120.000 201.789 C 120.000 202.106,122.900 203.233,123.128 203.005 C 123.241 202.892,123.235 202.800,123.116 202.800 C 122.996 202.800,122.246 202.528,121.449 202.195 C 120.652 201.862,120.000 201.679,120.000 201.789 M276.554 202.177 C 276.432 202.494,276.403 203.079,276.489 203.477 C 276.587 203.928,276.724 203.712,276.854 202.900 C 277.071 201.538,276.930 201.196,276.554 202.177 M46.400 202.600 C 46.950 202.914,47.580 203.172,47.800 203.172 C 48.020 203.172,47.750 202.914,47.200 202.600 C 46.650 202.286,46.020 202.028,45.800 202.028 C 45.580 202.028,45.850 202.286,46.400 202.600 M82.800 202.861 C 85.012 205.067,88.410 207.976,87.000 206.456 C 86.120 205.508,84.680 204.177,83.800 203.497 C 82.920 202.818,82.470 202.532,82.800 202.861 M123.800 203.509 C 124.020 203.713,125.010 204.191,126.000 204.570 C 126.990 204.950,127.620 205.095,127.400 204.891 C 127.180 204.687,126.190 204.209,125.200 203.830 C 124.210 203.450,123.580 203.305,123.800 203.509 M260.846 203.667 C 260.821 204.034,260.696 204.664,260.570 205.067 C 260.352 205.762,260.363 205.763,260.797 205.087 C 261.048 204.696,261.173 204.066,261.073 203.687 C 260.911 203.068,260.888 203.066,260.846 203.667 M190.240 204.666 C 190.608 206.199,190.800 206.344,190.800 205.090 C 190.800 204.517,190.613 203.932,190.384 203.790 C 190.111 203.621,190.062 203.923,190.240 204.666 M161.183 205.700 C 162.841 207.466,163.200 207.784,163.200 207.483 C 163.200 207.419,162.345 206.564,161.300 205.583 L 159.400 203.800 161.183 205.700 M312.100 204.665 C 311.536 204.893,311.448 208.885,311.979 210.200 C 312.180 210.698,312.283 209.868,312.251 208.000 L 312.200 205.000 343.600 204.796 L 375.000 204.593 343.800 204.528 C 326.640 204.492,312.375 204.554,312.100 204.665 M275.867 205.067 C 275.720 205.213,275.615 205.798,275.634 206.367 C 275.668 207.381,275.675 207.379,276.021 206.220 C 276.385 205.003,276.331 204.602,275.867 205.067 M294.080 206.600 C 294.068 207.260,294.203 208.610,294.380 209.600 C 294.616 210.928,294.705 211.085,294.720 210.200 C 294.732 209.540,294.597 208.190,294.420 207.200 C 294.184 205.872,294.095 205.715,294.080 206.600 M213.493 208.293 C 213.120 209.533,212.881 210.614,212.963 210.696 C 213.045 210.778,213.427 209.841,213.813 208.613 C 214.199 207.386,214.438 206.305,214.344 206.211 C 214.250 206.116,213.867 207.054,213.493 208.293 M259.952 207.513 C 259.821 208.307,259.879 208.681,260.101 208.459 C 260.303 208.257,260.401 207.667,260.319 207.146 C 260.193 206.345,260.137 206.402,259.952 207.513 M191.044 207.800 C 191.373 209.271,191.602 209.590,191.594 208.567 C 191.591 208.145,191.405 207.530,191.182 207.200 C 190.885 206.762,190.848 206.924,191.044 207.800 M252.644 208.200 C 252.973 209.671,253.202 209.990,253.194 208.967 C 253.191 208.545,253.005 207.930,252.782 207.600 C 252.485 207.162,252.448 207.324,252.644 208.200 M275.067 208.267 C 274.920 208.413,274.815 208.998,274.834 209.567 C 274.868 210.581,274.875 210.579,275.221 209.420 C 275.585 208.203,275.531 207.802,275.067 208.267 M89.600 210.050 C 89.600 210.398,90.837 212.800,91.017 212.800 C 91.104 212.800,91.061 212.485,90.921 212.100 C 90.633 211.306,89.600 209.703,89.600 210.050 M191.844 211.000 C 192.173 212.471,192.402 212.790,192.394 211.767 C 192.391 211.345,192.205 210.730,191.982 210.400 C 191.685 209.962,191.648 210.124,191.844 211.000 M259.246 210.467 C 259.221 210.834,259.096 211.464,258.970 211.867 C 258.752 212.562,258.763 212.563,259.197 211.887 C 259.448 211.496,259.573 210.866,259.473 210.487 C 259.311 209.868,259.288 209.866,259.246 210.467 M274.249 211.815 C 274.112 212.173,274.018 212.856,274.041 213.333 C 274.067 213.881,274.203 213.686,274.410 212.803 C 274.760 211.316,274.665 210.733,274.249 211.815 M144.400 212.461 C 144.400 212.548,145.225 213.396,146.232 214.344 C 147.240 215.293,147.884 215.738,147.663 215.334 C 147.441 214.930,146.926 214.330,146.517 214.000 C 144.672 212.510,144.400 212.312,144.400 212.461 M207.606 213.233 C 207.609 213.765,207.789 214.470,208.006 214.800 C 208.282 215.222,208.323 214.985,208.142 214.000 C 207.825 212.275,207.598 211.949,207.606 213.233 M295.058 213.600 C 295.375 215.325,295.602 215.651,295.594 214.367 C 295.591 213.835,295.411 213.130,295.194 212.800 C 294.918 212.378,294.877 212.615,295.058 213.600 M71.429 214.481 C 72.057 215.296,72.658 215.875,72.765 215.769 C 72.872 215.662,72.358 214.995,71.623 214.287 L 70.287 213.000 71.429 214.481 M192.658 214.400 C 192.975 216.125,193.202 216.451,193.194 215.167 C 193.191 214.635,193.011 213.930,192.794 213.600 C 192.518 213.178,192.477 213.415,192.658 214.400 M258.446 213.667 C 258.421 214.034,258.296 214.664,258.170 215.067 C 257.952 215.762,257.963 215.763,258.397 215.087 C 258.648 214.696,258.773 214.066,258.673 213.687 C 258.511 213.068,258.488 213.066,258.446 213.667 M312.456 213.600 C 312.456 213.930,312.611 214.560,312.800 215.000 C 313.017 215.504,313.144 215.578,313.144 215.200 C 313.144 214.870,312.989 214.240,312.800 213.800 C 312.583 213.296,312.456 213.222,312.456 213.600 M166.644 215.000 C 166.973 216.471,167.202 216.790,167.194 215.767 C 167.191 215.345,167.005 214.730,166.782 214.400 C 166.485 213.962,166.448 214.124,166.644 215.000 M273.449 215.015 C 273.312 215.373,273.218 216.056,273.241 216.533 C 273.267 217.081,273.403 216.886,273.610 216.003 C 273.960 214.516,273.865 213.933,273.449 215.015 M208.400 216.976 C 208.400 217.513,208.547 218.044,208.728 218.155 C 208.908 218.267,208.977 217.827,208.882 217.179 C 208.672 215.749,208.400 215.635,208.400 216.976 M92.151 221.200 C 92.151 223.730,92.216 224.765,92.296 223.500 C 92.375 222.235,92.375 220.165,92.296 218.900 C 92.216 217.635,92.151 218.670,92.151 221.200 M193.444 217.800 C 193.773 219.271,194.002 219.590,193.994 218.567 C 193.991 218.145,193.805 217.530,193.582 217.200 C 193.285 216.762,193.248 216.924,193.444 217.800 M257.646 217.067 C 257.621 217.324,257.484 217.864,257.341 218.267 C 257.140 218.836,257.194 218.897,257.579 218.542 C 257.852 218.291,257.989 217.751,257.884 217.342 C 257.779 216.934,257.672 216.810,257.646 217.067 M167.346 221.000 C 167.347 223.200,167.414 224.049,167.495 222.887 C 167.576 221.724,167.576 219.924,167.493 218.887 C 167.411 217.849,167.345 218.800,167.346 221.000 M73.800 221.200 C 73.800 222.918,73.932 224.116,74.094 223.862 C 74.256 223.608,74.388 222.410,74.388 221.200 C 74.388 219.990,74.256 218.792,74.094 218.538 C 73.932 218.284,73.800 219.482,73.800 221.200 M272.449 219.400 C 272.416 219.840,272.296 220.650,272.183 221.200 L 271.977 222.200 272.406 221.219 C 272.642 220.679,272.761 219.869,272.672 219.419 C 272.513 218.621,272.507 218.621,272.449 219.400 M149.320 221.200 C 149.320 222.410,149.395 222.905,149.487 222.300 C 149.578 221.695,149.578 220.705,149.487 220.100 C 149.395 219.495,149.320 219.990,149.320 221.200 M194.258 221.200 C 194.575 222.925,194.802 223.251,194.794 221.967 C 194.791 221.435,194.611 220.730,194.394 220.400 C 194.118 219.978,194.077 220.215,194.258 221.200 M24.643 221.033 C 24.509 221.381,24.400 224.226,24.400 227.356 C 24.400 233.230,24.493 233.614,26.200 234.791 C 26.640 235.094,26.500 234.848,25.890 234.245 L 24.779 233.149 24.890 227.074 L 25.000 221.000 33.200 220.787 L 41.400 220.575 33.143 220.487 C 25.930 220.411,24.855 220.480,24.643 221.033 M102.600 220.676 C 109.472 220.962,116.401 220.975,116.401 220.700 C 116.400 220.535,112.665 220.436,108.100 220.479 C 103.535 220.523,101.060 220.612,102.600 220.676 M315.323 221.429 C 315.666 222.105,316.251 222.910,316.622 223.218 C 316.993 223.526,316.815 223.068,316.226 222.200 C 314.833 220.148,314.548 219.905,315.323 221.429 M41.337 224.200 C 41.339 225.960,41.409 226.630,41.493 225.689 C 41.578 224.749,41.577 223.309,41.491 222.489 C 41.405 221.670,41.336 222.440,41.337 224.200 M99.761 227.200 C 99.761 230.610,99.822 232.005,99.897 230.300 C 99.972 228.595,99.972 225.805,99.897 224.100 C 99.822 222.395,99.761 223.790,99.761 227.200 M363.900 221.895 L 371.600 222.017 371.600 227.729 C 371.600 231.732,371.450 233.608,371.100 234.001 C 370.674 234.479,370.705 234.482,371.310 234.023 C 371.943 233.543,372.009 232.849,371.910 227.642 L 371.800 221.800 364.000 221.786 L 356.200 221.773 363.900 221.895 M271.450 223.650 C 271.309 224.353,271.269 225.002,271.359 225.092 C 271.450 225.183,271.648 224.691,271.800 224.000 C 271.952 223.309,271.993 222.659,271.891 222.558 C 271.789 222.456,271.591 222.947,271.450 223.650 M148.201 225.596 C 148.052 226.067,147.367 227.116,146.679 227.926 C 145.507 229.309,145.499 229.338,146.553 228.400 C 147.725 227.356,148.999 225.266,148.666 224.933 C 148.560 224.827,148.351 225.125,148.201 225.596 M166.650 226.850 C 166.317 228.517,166.640 228.840,167.000 227.200 C 167.152 226.509,167.193 225.859,167.091 225.758 C 166.989 225.656,166.791 226.147,166.650 226.850 M300.323 226.600 C 300.555 227.040,301.313 228.030,302.008 228.800 L 303.272 230.200 301.965 228.400 C 300.364 226.196,299.764 225.538,300.323 226.600 M91.449 227.015 C 91.312 227.373,91.215 227.966,91.234 228.333 C 91.253 228.700,91.427 228.469,91.621 227.820 C 91.998 226.558,91.865 225.933,91.449 227.015 M322.800 228.596 C 322.800 228.870,325.249 230.084,325.432 229.901 C 325.519 229.814,324.962 229.444,324.195 229.078 C 323.428 228.712,322.800 228.495,322.800 228.596 M90.229 230.461 C 89.883 231.155,89.600 231.825,89.600 231.950 C 89.600 232.297,90.633 230.694,90.921 229.900 C 91.336 228.755,90.906 229.104,90.229 230.461 M352.200 229.814 C 351.195 230.298,351.163 230.353,352.000 230.151 C 352.550 230.019,353.171 229.750,353.380 229.555 C 353.898 229.071,353.614 229.133,352.200 229.814 M48.000 230.394 C 48.330 230.611,49.035 230.791,49.567 230.794 C 50.851 230.802,50.525 230.575,48.800 230.258 C 47.815 230.077,47.578 230.118,48.000 230.394 M123.200 230.394 C 123.530 230.611,124.235 230.791,124.767 230.794 C 126.051 230.802,125.725 230.575,124.000 230.258 C 123.015 230.077,122.778 230.118,123.200 230.394 M326.234 230.372 C 326.620 230.734,329.544 231.441,329.200 231.089 C 329.090 230.976,328.295 230.691,327.434 230.456 C 326.573 230.221,326.033 230.183,326.234 230.372 M348.800 230.818 C 348.362 231.115,348.524 231.152,349.400 230.956 C 350.871 230.627,351.190 230.398,350.167 230.406 C 349.745 230.409,349.130 230.595,348.800 230.818 M53.907 231.490 C 54.626 231.579,55.706 231.577,56.307 231.486 C 56.908 231.395,56.320 231.322,55.000 231.324 C 53.680 231.326,53.188 231.401,53.907 231.490 M61.500 231.482 C 61.995 231.578,62.805 231.578,63.300 231.482 C 63.795 231.387,63.390 231.309,62.400 231.309 C 61.410 231.309,61.005 231.387,61.500 231.482 M129.107 231.490 C 129.826 231.579,130.906 231.577,131.507 231.486 C 132.108 231.395,131.520 231.322,130.200 231.324 C 128.880 231.326,128.388 231.401,129.107 231.490 M136.700 231.482 C 137.195 231.578,138.005 231.578,138.500 231.482 C 138.995 231.387,138.590 231.309,137.600 231.309 C 136.610 231.309,136.205 231.387,136.700 231.482 M196.868 231.800 C 196.862 232.240,197.011 232.960,197.200 233.400 C 197.638 234.419,197.638 233.368,197.200 232.000 C 196.943 231.196,196.877 231.157,196.868 231.800 M219.240 232.640 C 219.010 233.473,218.894 234.227,218.982 234.315 C 219.070 234.403,219.330 233.793,219.560 232.960 C 219.790 232.127,219.906 231.373,219.818 231.285 C 219.730 231.197,219.470 231.807,219.240 232.640 M332.100 231.876 C 332.485 231.976,333.115 231.976,333.500 231.876 C 333.885 231.775,333.570 231.693,332.800 231.693 C 332.030 231.693,331.715 231.775,332.100 231.876 M342.500 231.876 C 342.885 231.976,343.515 231.976,343.900 231.876 C 344.285 231.775,343.970 231.693,343.200 231.693 C 342.430 231.693,342.115 231.775,342.500 231.876 M336.711 232.293 C 337.651 232.378,339.091 232.377,339.911 232.291 C 340.730 232.205,339.960 232.136,338.200 232.137 C 336.440 232.139,335.770 232.209,336.711 232.293 M87.616 234.427 C 86.676 235.541,84.938 237.097,83.754 237.883 C 81.418 239.434,80.839 240.090,82.837 238.923 C 84.643 237.867,86.965 235.812,88.406 233.993 C 90.213 231.711,89.641 232.025,87.616 234.427 M269.050 233.650 C 268.909 234.353,268.869 235.002,268.959 235.092 C 269.050 235.183,269.248 234.691,269.400 234.000 C 269.552 233.309,269.593 232.659,269.491 232.558 C 269.389 232.456,269.191 232.947,269.050 233.650 M306.600 233.566 C 307.378 234.461,309.600 236.198,309.600 235.912 C 309.600 235.834,308.745 235.067,307.700 234.208 C 306.655 233.349,306.160 233.060,306.600 233.566 M161.775 235.700 L 160.600 237.000 161.900 235.825 C 163.112 234.730,163.384 234.400,163.075 234.400 C 163.006 234.400,162.421 234.985,161.775 235.700 M28.000 235.964 C 28.550 236.414,29.180 236.783,29.400 236.785 C 29.828 236.788,29.105 236.234,27.800 235.560 C 27.269 235.285,27.336 235.421,28.000 235.964 M103.600 236.198 C 103.600 236.467,107.649 238.484,107.829 238.305 C 107.911 238.223,106.993 237.673,105.789 237.082 C 104.585 236.492,103.600 236.094,103.600 236.198 M268.200 237.200 C 268.048 237.891,268.007 238.541,268.109 238.642 C 268.211 238.744,268.409 238.253,268.550 237.550 C 268.691 236.847,268.731 236.198,268.641 236.108 C 268.550 236.017,268.352 236.509,268.200 237.200 M159.000 237.850 C 158.281 238.462,158.134 238.705,158.633 238.457 C 159.366 238.093,160.741 236.776,160.349 236.814 C 160.267 236.822,159.660 237.288,159.000 237.850 M364.800 237.600 C 364.030 238.022,363.544 238.374,363.720 238.383 C 364.144 238.405,366.400 237.232,366.400 236.990 C 366.400 236.728,366.377 236.737,364.800 237.600 M108.400 238.631 C 108.400 238.901,110.478 239.656,110.676 239.457 C 110.767 239.367,110.292 239.101,109.620 238.867 C 108.949 238.633,108.400 238.527,108.400 238.631 M249.240 239.420 C 249.158 241.097,249.739 241.204,258.380 241.112 L 266.600 241.025 258.218 240.812 L 249.835 240.600 249.557 239.600 C 249.325 238.763,249.273 238.733,249.240 239.420 M198.812 239.851 C 198.780 241.060,199.964 241.215,208.418 241.108 C 214.930 241.025,216.958 240.880,217.037 240.490 C 217.094 240.210,217.049 240.165,216.937 240.390 C 216.537 241.197,199.710 240.921,199.232 240.100 C 199.008 239.715,198.819 239.603,198.812 239.851 M40.833 241.344 C 40.925 241.423,41.540 241.608,42.200 241.756 C 43.076 241.952,43.238 241.915,42.800 241.618 C 42.260 241.253,40.432 240.998,40.833 241.344 M75.200 241.618 C 74.762 241.915,74.924 241.952,75.800 241.756 C 77.271 241.427,77.590 241.198,76.567 241.206 C 76.145 241.209,75.530 241.395,75.200 241.618 M116.033 241.344 C 116.125 241.423,116.740 241.608,117.400 241.756 C 118.276 241.952,118.438 241.915,118.000 241.618 C 117.460 241.253,115.632 240.998,116.033 241.344 M150.400 241.618 C 149.962 241.915,150.124 241.952,151.000 241.756 C 152.471 241.427,152.790 241.198,151.767 241.206 C 151.345 241.209,150.730 241.395,150.400 241.618 M320.433 241.344 C 320.525 241.423,321.140 241.608,321.800 241.756 C 322.676 241.952,322.838 241.915,322.400 241.618 C 321.860 241.253,320.032 240.998,320.433 241.344 M354.400 241.618 C 353.962 241.915,354.124 241.952,355.000 241.756 C 356.471 241.427,356.790 241.198,355.767 241.206 C 355.345 241.209,354.730 241.395,354.400 241.618 M44.033 242.147 C 44.125 242.228,44.920 242.404,45.800 242.538 C 46.915 242.707,47.158 242.671,46.600 242.419 C 45.832 242.071,43.690 241.844,44.033 242.147 M72.000 242.418 C 71.562 242.715,71.724 242.752,72.600 242.556 C 74.071 242.227,74.390 241.998,73.367 242.006 C 72.945 242.009,72.330 242.195,72.000 242.418 M119.233 242.147 C 119.325 242.228,120.120 242.404,121.000 242.538 C 122.115 242.707,122.358 242.671,121.800 242.419 C 121.032 242.071,118.890 241.844,119.233 242.147 M147.200 242.418 C 146.762 242.715,146.924 242.752,147.800 242.556 C 149.271 242.227,149.590 241.998,148.567 242.006 C 148.145 242.009,147.530 242.195,147.200 242.418 M323.633 242.144 C 323.725 242.223,324.340 242.408,325.000 242.556 C 325.876 242.752,326.038 242.715,325.600 242.418 C 325.060 242.053,323.232 241.798,323.633 242.144 M350.600 242.400 C 349.581 242.838,350.632 242.838,352.000 242.400 C 352.804 242.143,352.843 242.077,352.200 242.068 C 351.760 242.062,351.040 242.211,350.600 242.400 M48.833 242.944 C 48.925 243.024,50.080 243.189,51.400 243.312 C 52.891 243.451,53.421 243.411,52.800 243.207 C 51.812 242.884,48.511 242.665,48.833 242.944 M66.600 243.200 C 64.937 243.623,66.574 243.642,68.600 243.223 C 69.945 242.945,70.009 242.892,69.000 242.893 C 68.340 242.894,67.260 243.032,66.600 243.200 M124.033 242.950 C 124.125 243.032,125.280 243.204,126.600 243.331 C 128.155 243.480,128.648 243.442,128.000 243.221 C 127.014 242.884,123.710 242.659,124.033 242.950 M141.800 243.200 C 140.137 243.623,141.774 243.642,143.800 243.223 C 145.145 242.945,145.209 242.892,144.200 242.893 C 143.540 242.894,142.460 243.032,141.800 243.200 M327.233 242.951 C 327.325 243.035,328.840 243.202,330.600 243.323 C 333.006 243.488,333.353 243.458,332.000 243.201 C 330.150 242.850,326.936 242.681,327.233 242.951 M344.200 243.200 C 342.853 243.441,342.790 243.491,343.800 243.514 C 344.460 243.529,345.810 243.397,346.800 243.220 C 348.415 242.933,348.456 242.901,347.200 242.907 C 346.430 242.911,345.080 243.042,344.200 243.200 " stroke="none" fill="#f0cccc" fill-rule="evenodd"></path></g></svg>